<svg xmlns="http://www.w3.org/2000/svg" xmlns:xlink="http://www.w3.org/1999/xlink" width="1123" zoomAndPan="magnify" viewBox="0 0 842.25 595.499986" height="794" preserveAspectRatio="xMidYMid meet" version="1.0"><defs><filter x="0%" y="0%" width="100%" height="100%" id="42c8604e70"><feColorMatrix values="0 0 0 0 1 0 0 0 0 1 0 0 0 0 1 0 0 0 1 0" color-interpolation-filters="sRGB"/></filter><clipPath id="53b7e8f1bd"><path d="M 0 0.015625 L 841.5 0.015625 L 841.5 594.984375 L 0 594.984375 Z M 0 0.015625 " clip-rule="nonzero"/></clipPath><clipPath id="0d070a69bf"><path d="M 0 0.015625 L 841.5 0.015625 L 841.5 594.984375 L 0 594.984375 Z M 0 0.015625 " clip-rule="nonzero"/></clipPath><clipPath id="9d4e374ba6"><path d="M 4 0.765625 L 201 0.765625 L 201 167 L 4 167 Z M 4 0.765625 " clip-rule="nonzero"/></clipPath><mask id="f512bd1522"><g filter="url(#42c8604e70)"><rect x="-317.579" width="1455.408" fill="#000000" y="-227.761995" height="1029.023976" fill-opacity="0.5"/></g></mask><clipPath id="3eecc5a805"><path d="M 0.75 117 L 50 117 L 50 166.453125 L 0.75 166.453125 Z M 0.75 117 " clip-rule="nonzero"/></clipPath><clipPath id="5c19e58820"><path d="M 170 66 L 196.730469 66 L 196.730469 93 L 170 93 Z M 170 66 " clip-rule="nonzero"/></clipPath><clipPath id="6cd499f96f"><path d="M 68 1.035156 L 118 1.035156 L 118 51 L 68 51 Z M 68 1.035156 " clip-rule="nonzero"/></clipPath><clipPath id="1b1dbf5e9d"><rect x="0" width="197" y="0" height="167"/></clipPath><clipPath id="6be0d510d1"><path d="M 239 190 L 350.597656 190 L 350.597656 284 L 239 284 Z M 239 190 " clip-rule="nonzero"/></clipPath><mask id="a75abe0582"><g filter="url(#42c8604e70)"><rect x="-317.579" width="1455.408" fill="#000000" y="-227.761995" height="1029.023976" fill-opacity="0.5"/></g></mask><clipPath id="32edd7f3c8"><path d="M 0.601562 0.355469 L 111.195312 0.355469 L 111.195312 93.621094 L 0.601562 93.621094 Z M 0.601562 0.355469 " clip-rule="nonzero"/></clipPath><clipPath id="87e3a64109"><path d="M 83 66 L 111.195312 66 L 111.195312 93.621094 L 83 93.621094 Z M 83 66 " clip-rule="nonzero"/></clipPath><clipPath id="4f791144a4"><path d="M 0.722656 37 L 16 37 L 16 53 L 0.722656 53 Z M 0.722656 37 " clip-rule="nonzero"/></clipPath><clipPath id="3ad0c0ec31"><path d="M 45 0.355469 L 73 0.355469 L 73 29 L 45 29 Z M 45 0.355469 " clip-rule="nonzero"/></clipPath><clipPath id="22e26ea281"><rect x="0" width="112" y="0" height="94"/></clipPath><clipPath id="dfd7ce4759"><rect x="0" width="112" y="0" height="94"/></clipPath><clipPath id="24b8939253"><path d="M 0.75 382 L 250 382 L 250 572.175781 L 0.75 572.175781 Z M 0.75 382 " clip-rule="nonzero"/></clipPath><mask id="ab13b8d44d"><g filter="url(#42c8604e70)"><rect x="-317.579" width="1455.408" fill="#000000" y="-227.761995" height="1029.023976" fill-opacity="0.4"/></g></mask><clipPath id="c60888ccf3"><path d="M 1.019531 1.074219 L 249.621094 1.074219 L 249.621094 189.808594 L 1.019531 189.808594 Z M 1.019531 1.074219 " clip-rule="nonzero"/></clipPath><clipPath id="88bb419ae7"><path d="M 89 0.0742188 L 159 0.0742188 L 159 58 L 89 58 Z M 89 0.0742188 " clip-rule="nonzero"/></clipPath><clipPath id="a8fe25bd76"><path d="M 136 131 L 206 131 L 206 188.808594 L 136 188.808594 Z M 136 131 " clip-rule="nonzero"/></clipPath><clipPath id="c0500854f5"><path d="M 182 104 L 248.554688 104 L 248.554688 165 L 182 165 Z M 182 104 " clip-rule="nonzero"/></clipPath><clipPath id="0544b74a27"><path d="M 0.0195312 0.0742188 L 66 0.0742188 L 66 58 L 0.0195312 58 Z M 0.0195312 0.0742188 " clip-rule="nonzero"/></clipPath><clipPath id="c3a789195d"><path d="M 0.0195312 50 L 66 50 L 66 112 L 0.0195312 112 Z M 0.0195312 50 " clip-rule="nonzero"/></clipPath><clipPath id="aa51be2c39"><path d="M 43 131 L 113 131 L 113 188.808594 L 43 188.808594 Z M 43 131 " clip-rule="nonzero"/></clipPath><clipPath id="28cc724607"><rect x="0" width="249" y="0" height="189"/></clipPath><clipPath id="9c709e680c"><rect x="0" width="250" y="0" height="191"/></clipPath><clipPath id="f1278b33a2"><rect x="0" width="351" y="0" height="573"/></clipPath><clipPath id="43df1f53b4"><rect x="0" width="842" y="0" height="595"/></clipPath></defs><g clip-path="url(#53b7e8f1bd)"><path fill="#ffffff" d="M 0 0.015625 L 841.5 0.015625 L 841.5 594.984375 L 0 594.984375 Z M 0 0.015625 " fill-opacity="1" fill-rule="nonzero"/><g transform="matrix(1, 0, 0, 1, 0, -0.000000000000000137)"><g clip-path="url(#43df1f53b4)"><g clip-path="url(#0d070a69bf)"><path fill="#ffffff" d="M 0 0.015625 L 841.816406 0.015625 L 841.816406 595.210938 L 0 595.210938 Z M 0 0.015625 " fill-opacity="1" fill-rule="nonzero"/></g><g transform="matrix(1, 0, 0, 1, 11, 11)"><g clip-path="url(#f1278b33a2)"><g clip-path="url(#9d4e374ba6)"><g mask="url(#f512bd1522)"><g transform="matrix(1, 0, 0, 1, 4, 0)"><g clip-path="url(#1b1dbf5e9d)"><path fill="#a0dcff" d="M 20.261719 55.714844 L 111.796875 55.714844 L 111.796875 147.253906 L 20.261719 147.253906 Z M 20.261719 55.714844 " fill-opacity="1" fill-rule="nonzero"/><path fill="#a0dcff" d="M 157.566406 74.886719 L 189.019531 74.886719 L 189.019531 106.335938 L 157.566406 106.335938 Z M 157.566406 74.886719 " fill-opacity="1" fill-rule="nonzero"/><path fill="#2563eb" d="M 117.347656 109.742188 L 154.855469 109.742188 L 154.855469 147.253906 L 117.347656 147.253906 Z M 117.347656 109.742188 " fill-opacity="1" fill-rule="nonzero"/><path fill="#2563eb" d="M 91.070312 25.648438 L 144.277344 25.648438 L 144.277344 78.855469 L 91.070312 78.855469 Z M 91.070312 25.648438 " fill-opacity="1" fill-rule="nonzero"/><path fill="#2563eb" d="M 48.148438 95.15625 L 53.316406 95.15625 L 53.316406 100.324219 L 48.148438 100.324219 Z M 48.148438 95.15625 " fill-opacity="1" fill-rule="nonzero"/><path fill="#2563eb" d="M 39.539062 95.15625 L 44.703125 95.15625 L 44.703125 100.324219 L 39.539062 100.324219 Z M 39.539062 95.15625 " fill-opacity="1" fill-rule="nonzero"/><path fill="#2563eb" d="M 30.929688 95.15625 L 36.09375 95.15625 L 36.09375 100.324219 L 30.929688 100.324219 Z M 30.929688 95.15625 " fill-opacity="1" fill-rule="nonzero"/><path fill="#2563eb" d="M 22.316406 95.15625 L 27.484375 95.15625 L 27.484375 100.324219 L 22.316406 100.324219 Z M 22.316406 95.15625 " fill-opacity="1" fill-rule="nonzero"/><path fill="#2563eb" d="M 13.707031 95.15625 L 18.875 95.15625 L 18.875 100.324219 L 13.707031 100.324219 Z M 13.707031 95.15625 " fill-opacity="1" fill-rule="nonzero"/><path fill="#2563eb" d="M 48.148438 86.546875 L 53.316406 86.546875 L 53.316406 91.714844 L 48.148438 91.714844 Z M 48.148438 86.546875 " fill-opacity="1" fill-rule="nonzero"/><path fill="#2563eb" d="M 39.539062 86.546875 L 44.703125 86.546875 L 44.703125 91.714844 L 39.539062 91.714844 Z M 39.539062 86.546875 " fill-opacity="1" fill-rule="nonzero"/><path fill="#2563eb" d="M 30.929688 86.546875 L 36.09375 86.546875 L 36.09375 91.714844 L 30.929688 91.714844 Z M 30.929688 86.546875 " fill-opacity="1" fill-rule="nonzero"/><path fill="#2563eb" d="M 22.316406 86.546875 L 27.484375 86.546875 L 27.484375 91.714844 L 22.316406 91.714844 Z M 22.316406 86.546875 " fill-opacity="1" fill-rule="nonzero"/><path fill="#2563eb" d="M 13.707031 86.546875 L 18.875 86.546875 L 18.875 91.714844 L 13.707031 91.714844 Z M 13.707031 86.546875 " fill-opacity="1" fill-rule="nonzero"/><path fill="#2563eb" d="M 48.148438 77.9375 L 53.316406 77.9375 L 53.316406 83.105469 L 48.148438 83.105469 Z M 48.148438 77.9375 " fill-opacity="1" fill-rule="nonzero"/><path fill="#2563eb" d="M 39.539062 77.9375 L 44.703125 77.9375 L 44.703125 83.105469 L 39.539062 83.105469 Z M 39.539062 77.9375 " fill-opacity="1" fill-rule="nonzero"/><path fill="#2563eb" d="M 30.929688 77.9375 L 36.09375 77.9375 L 36.09375 83.105469 L 30.929688 83.105469 Z M 30.929688 77.9375 " fill-opacity="1" fill-rule="nonzero"/><path fill="#2563eb" d="M 22.316406 77.9375 L 27.484375 77.9375 L 27.484375 83.105469 L 22.316406 83.105469 Z M 22.316406 77.9375 " fill-opacity="1" fill-rule="nonzero"/><path fill="#2563eb" d="M 13.707031 77.9375 L 18.875 77.9375 L 18.875 83.105469 L 13.707031 83.105469 Z M 13.707031 77.9375 " fill-opacity="1" fill-rule="nonzero"/><path fill="#2563eb" d="M 48.148438 69.328125 L 53.316406 69.328125 L 53.316406 74.492188 L 48.148438 74.492188 Z M 48.148438 69.328125 " fill-opacity="1" fill-rule="nonzero"/><path fill="#2563eb" d="M 39.539062 69.328125 L 44.703125 69.328125 L 44.703125 74.492188 L 39.539062 74.492188 Z M 39.539062 69.328125 " fill-opacity="1" fill-rule="nonzero"/><path fill="#2563eb" d="M 30.929688 69.328125 L 36.09375 69.328125 L 36.09375 74.492188 L 30.929688 74.492188 Z M 30.929688 69.328125 " fill-opacity="1" fill-rule="nonzero"/><path fill="#2563eb" d="M 22.316406 69.328125 L 27.484375 69.328125 L 27.484375 74.492188 L 22.316406 74.492188 Z M 22.316406 69.328125 " fill-opacity="1" fill-rule="nonzero"/><path fill="#2563eb" d="M 13.707031 69.328125 L 18.875 69.328125 L 18.875 74.492188 L 13.707031 74.492188 Z M 13.707031 69.328125 " fill-opacity="1" fill-rule="nonzero"/><path fill="#2563eb" d="M 48.148438 60.71875 L 53.316406 60.71875 L 53.316406 65.882812 L 48.148438 65.882812 Z M 48.148438 60.71875 " fill-opacity="1" fill-rule="nonzero"/><path fill="#2563eb" d="M 39.539062 60.71875 L 44.703125 60.71875 L 44.703125 65.882812 L 39.539062 65.882812 Z M 39.539062 60.71875 " fill-opacity="1" fill-rule="nonzero"/><path fill="#2563eb" d="M 30.929688 60.71875 L 36.09375 60.71875 L 36.09375 65.882812 L 30.929688 65.882812 Z M 30.929688 60.71875 " fill-opacity="1" fill-rule="nonzero"/><path fill="#2563eb" d="M 22.316406 60.71875 L 27.484375 60.71875 L 27.484375 65.882812 L 22.316406 65.882812 Z M 22.316406 60.71875 " fill-opacity="1" fill-rule="nonzero"/><path fill="#2563eb" d="M 13.707031 60.71875 L 18.875 60.71875 L 18.875 65.882812 L 13.707031 65.882812 Z M 13.707031 60.71875 " fill-opacity="1" fill-rule="nonzero"/><path fill="#a0dcff" d="M 148.925781 67.125 L 151.664062 67.125 L 151.664062 69.863281 L 148.925781 69.863281 Z M 148.925781 67.125 " fill-opacity="1" fill-rule="nonzero"/><path fill="#a0dcff" d="M 144.359375 67.125 L 147.101562 67.125 L 147.101562 69.863281 L 144.359375 69.863281 Z M 144.359375 67.125 " fill-opacity="1" fill-rule="nonzero"/><path fill="#a0dcff" d="M 139.792969 67.125 L 142.53125 67.125 L 142.53125 69.863281 L 139.792969 69.863281 Z M 139.792969 67.125 " fill-opacity="1" fill-rule="nonzero"/><path fill="#a0dcff" d="M 135.226562 67.125 L 137.96875 67.125 L 137.96875 69.863281 L 135.226562 69.863281 Z M 135.226562 67.125 " fill-opacity="1" fill-rule="nonzero"/><path fill="#a0dcff" d="M 130.660156 67.125 L 133.398438 67.125 L 133.398438 69.863281 L 130.660156 69.863281 Z M 130.660156 67.125 " fill-opacity="1" fill-rule="nonzero"/><path fill="#a0dcff" d="M 148.925781 62.558594 L 151.664062 62.558594 L 151.664062 65.296875 L 148.925781 65.296875 Z M 148.925781 62.558594 " fill-opacity="1" fill-rule="nonzero"/><path fill="#a0dcff" d="M 144.359375 62.558594 L 147.101562 62.558594 L 147.101562 65.296875 L 144.359375 65.296875 Z M 144.359375 62.558594 " fill-opacity="1" fill-rule="nonzero"/><path fill="#a0dcff" d="M 139.792969 62.558594 L 142.53125 62.558594 L 142.53125 65.296875 L 139.792969 65.296875 Z M 139.792969 62.558594 " fill-opacity="1" fill-rule="nonzero"/><path fill="#a0dcff" d="M 135.226562 62.558594 L 137.96875 62.558594 L 137.96875 65.296875 L 135.226562 65.296875 Z M 135.226562 62.558594 " fill-opacity="1" fill-rule="nonzero"/><path fill="#a0dcff" d="M 130.660156 62.558594 L 133.398438 62.558594 L 133.398438 65.296875 L 130.660156 65.296875 Z M 130.660156 62.558594 " fill-opacity="1" fill-rule="nonzero"/><path fill="#a0dcff" d="M 148.925781 57.992188 L 151.664062 57.992188 L 151.664062 60.730469 L 148.925781 60.730469 Z M 148.925781 57.992188 " fill-opacity="1" fill-rule="nonzero"/><path fill="#a0dcff" d="M 144.359375 57.992188 L 147.101562 57.992188 L 147.101562 60.730469 L 144.359375 60.730469 Z M 144.359375 57.992188 " fill-opacity="1" fill-rule="nonzero"/><path fill="#a0dcff" d="M 139.792969 57.992188 L 142.53125 57.992188 L 142.53125 60.730469 L 139.792969 60.730469 Z M 139.792969 57.992188 " fill-opacity="1" fill-rule="nonzero"/><path fill="#a0dcff" d="M 135.226562 57.992188 L 137.96875 57.992188 L 137.96875 60.730469 L 135.226562 60.730469 Z M 135.226562 57.992188 " fill-opacity="1" fill-rule="nonzero"/><path fill="#a0dcff" d="M 130.660156 57.992188 L 133.398438 57.992188 L 133.398438 60.730469 L 130.660156 60.730469 Z M 130.660156 57.992188 " fill-opacity="1" fill-rule="nonzero"/><path fill="#a0dcff" d="M 148.925781 53.425781 L 151.664062 53.425781 L 151.664062 56.164062 L 148.925781 56.164062 Z M 148.925781 53.425781 " fill-opacity="1" fill-rule="nonzero"/><path fill="#a0dcff" d="M 144.359375 53.425781 L 147.101562 53.425781 L 147.101562 56.164062 L 144.359375 56.164062 Z M 144.359375 53.425781 " fill-opacity="1" fill-rule="nonzero"/><path fill="#a0dcff" d="M 139.792969 53.425781 L 142.53125 53.425781 L 142.53125 56.164062 L 139.792969 56.164062 Z M 139.792969 53.425781 " fill-opacity="1" fill-rule="nonzero"/><path fill="#a0dcff" d="M 135.226562 53.425781 L 137.96875 53.425781 L 137.96875 56.164062 L 135.226562 56.164062 Z M 135.226562 53.425781 " fill-opacity="1" fill-rule="nonzero"/><path fill="#a0dcff" d="M 130.660156 53.425781 L 133.398438 53.425781 L 133.398438 56.164062 L 130.660156 56.164062 Z M 130.660156 53.425781 " fill-opacity="1" fill-rule="nonzero"/><path fill="#a0dcff" d="M 148.925781 48.859375 L 151.664062 48.859375 L 151.664062 51.601562 L 148.925781 51.601562 Z M 148.925781 48.859375 " fill-opacity="1" fill-rule="nonzero"/><path fill="#a0dcff" d="M 144.359375 48.859375 L 147.101562 48.859375 L 147.101562 51.601562 L 144.359375 51.601562 Z M 144.359375 48.859375 " fill-opacity="1" fill-rule="nonzero"/><path fill="#a0dcff" d="M 139.792969 48.859375 L 142.53125 48.859375 L 142.53125 51.601562 L 139.792969 51.601562 Z M 139.792969 48.859375 " fill-opacity="1" fill-rule="nonzero"/><path fill="#a0dcff" d="M 135.226562 48.859375 L 137.96875 48.859375 L 137.96875 51.601562 L 135.226562 51.601562 Z M 135.226562 48.859375 " fill-opacity="1" fill-rule="nonzero"/><path fill="#a0dcff" d="M 130.660156 48.859375 L 133.398438 48.859375 L 133.398438 51.601562 L 130.660156 51.601562 Z M 130.660156 48.859375 " fill-opacity="1" fill-rule="nonzero"/><g clip-path="url(#3eecc5a805)"><path fill="#2563eb" d="M 49.679688 166.363281 L 0.820312 166.363281 L 0.820312 117.507812 L 49.679688 117.507812 Z M 4.90625 162.277344 L 45.59375 162.277344 L 45.59375 121.59375 L 4.90625 121.59375 Z M 4.90625 162.277344 " fill-opacity="1" fill-rule="nonzero"/></g><g clip-path="url(#5c19e58820)"><path fill="#2563eb" d="M 196.648438 92.773438 L 170.1875 92.773438 L 170.1875 66.3125 L 196.648438 66.3125 Z M 174.277344 88.6875 L 192.566406 88.6875 L 192.566406 70.398438 L 174.277344 70.398438 Z M 174.277344 88.6875 " fill-opacity="1" fill-rule="nonzero"/></g><g clip-path="url(#6cd499f96f)"><path fill="#a0dcff" d="M 117.832031 50.253906 L 68.621094 50.253906 L 68.621094 1.042969 L 117.832031 1.042969 Z M 72.707031 46.167969 L 113.746094 46.167969 L 113.746094 5.128906 L 72.707031 5.128906 Z M 72.707031 46.167969 " fill-opacity="1" fill-rule="nonzero"/></g><path fill="#a0dcff" d="M 179.011719 132.492188 L 160.804688 132.492188 L 160.804688 114.28125 L 179.011719 114.28125 Z M 164.890625 128.40625 L 174.925781 128.40625 L 174.925781 118.367188 L 164.890625 118.367188 Z M 164.890625 128.40625 " fill-opacity="1" fill-rule="nonzero"/><path fill="#a0dcff" d="M 148.65625 120.652344 L 144.992188 120.652344 L 144.992188 116.992188 L 148.65625 116.992188 Z M 145.539062 120.109375 L 148.109375 120.109375 L 148.109375 117.535156 L 145.539062 117.535156 Z M 145.539062 120.109375 " fill-opacity="1" fill-rule="nonzero"/><path fill="#a0dcff" d="M 143.042969 120.652344 L 139.378906 120.652344 L 139.378906 116.992188 L 143.042969 116.992188 Z M 139.921875 120.109375 L 142.496094 120.109375 L 142.496094 117.535156 L 139.921875 117.535156 Z M 139.921875 120.109375 " fill-opacity="1" fill-rule="nonzero"/><path fill="#a0dcff" d="M 137.429688 120.652344 L 133.769531 120.652344 L 133.769531 116.992188 L 137.429688 116.992188 Z M 134.308594 120.109375 L 136.882812 120.109375 L 136.882812 117.535156 L 134.308594 117.535156 Z M 134.308594 120.109375 " fill-opacity="1" fill-rule="nonzero"/><path fill="#a0dcff" d="M 131.816406 120.652344 L 128.152344 120.652344 L 128.152344 116.992188 L 131.816406 116.992188 Z M 128.699219 120.109375 L 131.273438 120.109375 L 131.273438 117.535156 L 128.699219 117.535156 Z M 128.699219 120.109375 " fill-opacity="1" fill-rule="nonzero"/><path fill="#a0dcff" d="M 148.65625 115.042969 L 144.992188 115.042969 L 144.992188 111.378906 L 148.65625 111.378906 Z M 145.539062 114.5 L 148.109375 114.5 L 148.109375 111.925781 L 145.539062 111.925781 Z M 145.539062 114.5 " fill-opacity="1" fill-rule="nonzero"/><path fill="#a0dcff" d="M 143.042969 115.042969 L 139.378906 115.042969 L 139.378906 111.378906 L 143.042969 111.378906 Z M 139.921875 114.5 L 142.496094 114.5 L 142.496094 111.925781 L 139.921875 111.925781 Z M 139.921875 114.5 " fill-opacity="1" fill-rule="nonzero"/><path fill="#a0dcff" d="M 137.429688 115.042969 L 133.769531 115.042969 L 133.769531 111.378906 L 137.429688 111.378906 Z M 134.308594 114.5 L 136.882812 114.5 L 136.882812 111.925781 L 134.308594 111.925781 Z M 134.308594 114.5 " fill-opacity="1" fill-rule="nonzero"/><path fill="#a0dcff" d="M 131.816406 115.042969 L 128.152344 115.042969 L 128.152344 111.378906 L 131.816406 111.378906 Z M 128.699219 114.5 L 131.273438 114.5 L 131.273438 111.925781 L 128.699219 111.925781 Z M 128.699219 114.5 " fill-opacity="1" fill-rule="nonzero"/><path fill="#a0dcff" d="M 148.65625 109.429688 L 144.992188 109.429688 L 144.992188 105.765625 L 148.65625 105.765625 Z M 145.539062 108.882812 L 148.109375 108.882812 L 148.109375 106.3125 L 145.539062 106.3125 Z M 145.539062 108.882812 " fill-opacity="1" fill-rule="nonzero"/><path fill="#a0dcff" d="M 143.042969 109.429688 L 139.378906 109.429688 L 139.378906 105.765625 L 143.042969 105.765625 Z M 139.921875 108.882812 L 142.496094 108.882812 L 142.496094 106.3125 L 139.921875 106.3125 Z M 139.921875 108.882812 " fill-opacity="1" fill-rule="nonzero"/><path fill="#a0dcff" d="M 137.429688 109.429688 L 133.769531 109.429688 L 133.769531 105.765625 L 137.429688 105.765625 Z M 134.308594 108.882812 L 136.882812 108.882812 L 136.882812 106.3125 L 134.308594 106.3125 Z M 134.308594 108.882812 " fill-opacity="1" fill-rule="nonzero"/><path fill="#a0dcff" d="M 131.816406 109.429688 L 128.152344 109.429688 L 128.152344 105.765625 L 131.816406 105.765625 Z M 128.699219 108.882812 L 131.273438 108.882812 L 131.273438 106.3125 L 128.699219 106.3125 Z M 128.699219 108.882812 " fill-opacity="1" fill-rule="nonzero"/><path fill="#a0dcff" d="M 148.65625 103.816406 L 144.992188 103.816406 L 144.992188 100.152344 L 148.65625 100.152344 Z M 145.539062 103.269531 L 148.109375 103.269531 L 148.109375 100.695312 L 145.539062 100.695312 Z M 145.539062 103.269531 " fill-opacity="1" fill-rule="nonzero"/><path fill="#a0dcff" d="M 143.042969 103.816406 L 139.378906 103.816406 L 139.378906 100.152344 L 143.042969 100.152344 Z M 139.921875 103.269531 L 142.496094 103.269531 L 142.496094 100.695312 L 139.921875 100.695312 Z M 139.921875 103.269531 " fill-opacity="1" fill-rule="nonzero"/><path fill="#a0dcff" d="M 137.429688 103.816406 L 133.769531 103.816406 L 133.769531 100.152344 L 137.429688 100.152344 Z M 134.308594 103.269531 L 136.882812 103.269531 L 136.882812 100.695312 L 134.308594 100.695312 Z M 134.308594 103.269531 " fill-opacity="1" fill-rule="nonzero"/><path fill="#a0dcff" d="M 131.816406 103.816406 L 128.152344 103.816406 L 128.152344 100.152344 L 131.816406 100.152344 Z M 128.699219 103.269531 L 131.273438 103.269531 L 131.273438 100.695312 L 128.699219 100.695312 Z M 128.699219 103.269531 " fill-opacity="1" fill-rule="nonzero"/><path fill="#2563eb" d="M 99.152344 135.671875 L 92.988281 135.671875 L 92.988281 129.507812 L 99.152344 129.507812 Z M 93.53125 135.128906 L 98.609375 135.128906 L 98.609375 130.050781 L 93.53125 130.050781 Z M 93.53125 135.128906 " fill-opacity="1" fill-rule="nonzero"/><path fill="#2563eb" d="M 89.039062 135.671875 L 82.871094 135.671875 L 82.871094 129.507812 L 89.039062 129.507812 Z M 83.414062 135.128906 L 88.488281 135.128906 L 88.488281 130.050781 L 83.414062 130.050781 Z M 83.414062 135.128906 " fill-opacity="1" fill-rule="nonzero"/><path fill="#2563eb" d="M 78.917969 135.671875 L 72.753906 135.671875 L 72.753906 129.507812 L 78.917969 129.507812 Z M 73.296875 135.128906 L 78.375 135.128906 L 78.375 130.050781 L 73.296875 130.050781 Z M 73.296875 135.128906 " fill-opacity="1" fill-rule="nonzero"/><path fill="#2563eb" d="M 99.152344 125.558594 L 92.988281 125.558594 L 92.988281 119.390625 L 99.152344 119.390625 Z M 93.53125 125.011719 L 98.609375 125.011719 L 98.609375 119.933594 L 93.53125 119.933594 Z M 93.53125 125.011719 " fill-opacity="1" fill-rule="nonzero"/><path fill="#2563eb" d="M 89.039062 125.558594 L 82.871094 125.558594 L 82.871094 119.390625 L 89.039062 119.390625 Z M 83.414062 125.011719 L 88.488281 125.011719 L 88.488281 119.933594 L 83.414062 119.933594 Z M 83.414062 125.011719 " fill-opacity="1" fill-rule="nonzero"/><path fill="#2563eb" d="M 78.917969 125.558594 L 72.753906 125.558594 L 72.753906 119.390625 L 78.917969 119.390625 Z M 73.296875 125.011719 L 78.375 125.011719 L 78.375 119.933594 L 73.296875 119.933594 Z M 73.296875 125.011719 " fill-opacity="1" fill-rule="nonzero"/><path fill="#2563eb" d="M 99.152344 115.441406 L 92.988281 115.441406 L 92.988281 109.273438 L 99.152344 109.273438 Z M 93.53125 114.894531 L 98.609375 114.894531 L 98.609375 109.820312 L 93.53125 109.820312 Z M 93.53125 114.894531 " fill-opacity="1" fill-rule="nonzero"/><path fill="#2563eb" d="M 89.039062 115.441406 L 82.871094 115.441406 L 82.871094 109.273438 L 89.039062 109.273438 Z M 83.414062 114.894531 L 88.488281 114.894531 L 88.488281 109.820312 L 83.414062 109.820312 Z M 83.414062 114.894531 " fill-opacity="1" fill-rule="nonzero"/><path fill="#2563eb" d="M 78.917969 115.441406 L 72.753906 115.441406 L 72.753906 109.273438 L 78.917969 109.273438 Z M 73.296875 114.894531 L 78.375 114.894531 L 78.375 109.820312 L 73.296875 109.820312 Z M 73.296875 114.894531 " fill-opacity="1" fill-rule="nonzero"/><path fill="#2563eb" d="M 99.152344 105.320312 L 92.988281 105.320312 L 92.988281 99.15625 L 99.152344 99.15625 Z M 93.53125 104.777344 L 98.609375 104.777344 L 98.609375 99.699219 L 93.53125 99.699219 Z M 93.53125 104.777344 " fill-opacity="1" fill-rule="nonzero"/><path fill="#2563eb" d="M 89.039062 105.320312 L 82.871094 105.320312 L 82.871094 99.15625 L 89.039062 99.15625 Z M 83.414062 104.777344 L 88.488281 104.777344 L 88.488281 99.699219 L 83.414062 99.699219 Z M 83.414062 104.777344 " fill-opacity="1" fill-rule="nonzero"/><path fill="#2563eb" d="M 78.917969 105.320312 L 72.753906 105.320312 L 72.753906 99.15625 L 78.917969 99.15625 Z M 73.296875 104.777344 L 78.375 104.777344 L 78.375 99.699219 L 73.296875 99.699219 Z M 73.296875 104.777344 " fill-opacity="1" fill-rule="nonzero"/></g></g></g></g><g clip-path="url(#6be0d510d1)"><g mask="url(#a75abe0582)"><g transform="matrix(1, 0, 0, 1, 239, 190)"><g clip-path="url(#dfd7ce4759)"><g clip-path="url(#32edd7f3c8)"><g><g clip-path="url(#22e26ea281)"><path fill="#a0dcff" d="M 100.289062 31.25 L 48.574219 31.25 L 48.574219 82.964844 L 100.289062 82.964844 Z M 100.289062 31.25 " fill-opacity="1" fill-rule="nonzero"/><path fill="#a0dcff" d="M 22.714844 42.082031 L 4.945312 42.082031 L 4.945312 59.851562 L 22.714844 59.851562 Z M 22.714844 42.082031 " fill-opacity="1" fill-rule="nonzero"/><path fill="#2563eb" d="M 45.4375 61.773438 L 24.246094 61.773438 L 24.246094 82.964844 L 45.4375 82.964844 Z M 45.4375 61.773438 " fill-opacity="1" fill-rule="nonzero"/><path fill="#2563eb" d="M 60.285156 14.261719 L 30.222656 14.261719 L 30.222656 44.324219 L 60.285156 44.324219 Z M 60.285156 14.261719 " fill-opacity="1" fill-rule="nonzero"/><path fill="#2563eb" d="M 84.535156 53.53125 L 81.617188 53.53125 L 81.617188 56.453125 L 84.535156 56.453125 Z M 84.535156 53.53125 " fill-opacity="1" fill-rule="nonzero"/><path fill="#2563eb" d="M 89.398438 53.53125 L 86.480469 53.53125 L 86.480469 56.453125 L 89.398438 56.453125 Z M 89.398438 53.53125 " fill-opacity="1" fill-rule="nonzero"/><path fill="#2563eb" d="M 94.265625 53.53125 L 91.34375 53.53125 L 91.34375 56.453125 L 94.265625 56.453125 Z M 94.265625 53.53125 " fill-opacity="1" fill-rule="nonzero"/><path fill="#2563eb" d="M 99.128906 53.53125 L 96.210938 53.53125 L 96.210938 56.453125 L 99.128906 56.453125 Z M 99.128906 53.53125 " fill-opacity="1" fill-rule="nonzero"/><path fill="#2563eb" d="M 103.992188 53.53125 L 101.074219 53.53125 L 101.074219 56.453125 L 103.992188 56.453125 Z M 103.992188 53.53125 " fill-opacity="1" fill-rule="nonzero"/><path fill="#2563eb" d="M 84.535156 48.667969 L 81.617188 48.667969 L 81.617188 51.589844 L 84.535156 51.589844 Z M 84.535156 48.667969 " fill-opacity="1" fill-rule="nonzero"/><path fill="#2563eb" d="M 89.398438 48.667969 L 86.480469 48.667969 L 86.480469 51.589844 L 89.398438 51.589844 Z M 89.398438 48.667969 " fill-opacity="1" fill-rule="nonzero"/><path fill="#2563eb" d="M 94.265625 48.667969 L 91.34375 48.667969 L 91.34375 51.589844 L 94.265625 51.589844 Z M 94.265625 48.667969 " fill-opacity="1" fill-rule="nonzero"/><path fill="#2563eb" d="M 99.128906 48.667969 L 96.210938 48.667969 L 96.210938 51.589844 L 99.128906 51.589844 Z M 99.128906 48.667969 " fill-opacity="1" fill-rule="nonzero"/><path fill="#2563eb" d="M 103.992188 48.667969 L 101.074219 48.667969 L 101.074219 51.589844 L 103.992188 51.589844 Z M 103.992188 48.667969 " fill-opacity="1" fill-rule="nonzero"/><path fill="#2563eb" d="M 84.535156 43.804688 L 81.617188 43.804688 L 81.617188 46.722656 L 84.535156 46.722656 Z M 84.535156 43.804688 " fill-opacity="1" fill-rule="nonzero"/><path fill="#2563eb" d="M 89.398438 43.804688 L 86.480469 43.804688 L 86.480469 46.722656 L 89.398438 46.722656 Z M 89.398438 43.804688 " fill-opacity="1" fill-rule="nonzero"/><path fill="#2563eb" d="M 94.265625 43.804688 L 91.34375 43.804688 L 91.34375 46.722656 L 94.265625 46.722656 Z M 94.265625 43.804688 " fill-opacity="1" fill-rule="nonzero"/><path fill="#2563eb" d="M 99.128906 43.804688 L 96.210938 43.804688 L 96.210938 46.722656 L 99.128906 46.722656 Z M 99.128906 43.804688 " fill-opacity="1" fill-rule="nonzero"/><path fill="#2563eb" d="M 103.992188 43.804688 L 101.074219 43.804688 L 101.074219 46.722656 L 103.992188 46.722656 Z M 103.992188 43.804688 " fill-opacity="1" fill-rule="nonzero"/><path fill="#2563eb" d="M 84.535156 38.941406 L 81.617188 38.941406 L 81.617188 41.859375 L 84.535156 41.859375 Z M 84.535156 38.941406 " fill-opacity="1" fill-rule="nonzero"/><path fill="#2563eb" d="M 89.398438 38.941406 L 86.480469 38.941406 L 86.480469 41.859375 L 89.398438 41.859375 Z M 89.398438 38.941406 " fill-opacity="1" fill-rule="nonzero"/><path fill="#2563eb" d="M 94.265625 38.941406 L 91.34375 38.941406 L 91.34375 41.859375 L 94.265625 41.859375 Z M 94.265625 38.941406 " fill-opacity="1" fill-rule="nonzero"/><path fill="#2563eb" d="M 99.128906 38.941406 L 96.210938 38.941406 L 96.210938 41.859375 L 99.128906 41.859375 Z M 99.128906 38.941406 " fill-opacity="1" fill-rule="nonzero"/><path fill="#2563eb" d="M 103.992188 38.941406 L 101.074219 38.941406 L 101.074219 41.859375 L 103.992188 41.859375 Z M 103.992188 38.941406 " fill-opacity="1" fill-rule="nonzero"/><path fill="#2563eb" d="M 84.535156 34.074219 L 81.617188 34.074219 L 81.617188 36.996094 L 84.535156 36.996094 Z M 84.535156 34.074219 " fill-opacity="1" fill-rule="nonzero"/><path fill="#2563eb" d="M 89.398438 34.074219 L 86.480469 34.074219 L 86.480469 36.996094 L 89.398438 36.996094 Z M 89.398438 34.074219 " fill-opacity="1" fill-rule="nonzero"/><path fill="#2563eb" d="M 94.265625 34.074219 L 91.34375 34.074219 L 91.34375 36.996094 L 94.265625 36.996094 Z M 94.265625 34.074219 " fill-opacity="1" fill-rule="nonzero"/><path fill="#2563eb" d="M 99.128906 34.074219 L 96.210938 34.074219 L 96.210938 36.996094 L 99.128906 36.996094 Z M 99.128906 34.074219 " fill-opacity="1" fill-rule="nonzero"/><path fill="#2563eb" d="M 103.992188 34.074219 L 101.074219 34.074219 L 101.074219 36.996094 L 103.992188 36.996094 Z M 103.992188 34.074219 " fill-opacity="1" fill-rule="nonzero"/><path fill="#a0dcff" d="M 27.597656 37.695312 L 26.050781 37.695312 L 26.050781 39.242188 L 27.597656 39.242188 Z M 27.597656 37.695312 " fill-opacity="1" fill-rule="nonzero"/><path fill="#a0dcff" d="M 30.175781 37.695312 L 28.628906 37.695312 L 28.628906 39.242188 L 30.175781 39.242188 Z M 30.175781 37.695312 " fill-opacity="1" fill-rule="nonzero"/><path fill="#a0dcff" d="M 32.757812 37.695312 L 31.207031 37.695312 L 31.207031 39.242188 L 32.757812 39.242188 Z M 32.757812 37.695312 " fill-opacity="1" fill-rule="nonzero"/><path fill="#a0dcff" d="M 35.335938 37.695312 L 33.789062 37.695312 L 33.789062 39.242188 L 35.335938 39.242188 Z M 35.335938 37.695312 " fill-opacity="1" fill-rule="nonzero"/><path fill="#a0dcff" d="M 37.917969 37.695312 L 36.367188 37.695312 L 36.367188 39.242188 L 37.917969 39.242188 Z M 37.917969 37.695312 " fill-opacity="1" fill-rule="nonzero"/><path fill="#a0dcff" d="M 27.597656 35.117188 L 26.050781 35.117188 L 26.050781 36.664062 L 27.597656 36.664062 Z M 27.597656 35.117188 " fill-opacity="1" fill-rule="nonzero"/><path fill="#a0dcff" d="M 30.175781 35.117188 L 28.628906 35.117188 L 28.628906 36.664062 L 30.175781 36.664062 Z M 30.175781 35.117188 " fill-opacity="1" fill-rule="nonzero"/><path fill="#a0dcff" d="M 32.757812 35.117188 L 31.207031 35.117188 L 31.207031 36.664062 L 32.757812 36.664062 Z M 32.757812 35.117188 " fill-opacity="1" fill-rule="nonzero"/><path fill="#a0dcff" d="M 35.335938 35.117188 L 33.789062 35.117188 L 33.789062 36.664062 L 35.335938 36.664062 Z M 35.335938 35.117188 " fill-opacity="1" fill-rule="nonzero"/><path fill="#a0dcff" d="M 37.917969 35.117188 L 36.367188 35.117188 L 36.367188 36.664062 L 37.917969 36.664062 Z M 37.917969 35.117188 " fill-opacity="1" fill-rule="nonzero"/><path fill="#a0dcff" d="M 27.597656 32.535156 L 26.050781 32.535156 L 26.050781 34.082031 L 27.597656 34.082031 Z M 27.597656 32.535156 " fill-opacity="1" fill-rule="nonzero"/><path fill="#a0dcff" d="M 30.175781 32.535156 L 28.628906 32.535156 L 28.628906 34.082031 L 30.175781 34.082031 Z M 30.175781 32.535156 " fill-opacity="1" fill-rule="nonzero"/><path fill="#a0dcff" d="M 32.757812 32.535156 L 31.207031 32.535156 L 31.207031 34.082031 L 32.757812 34.082031 Z M 32.757812 32.535156 " fill-opacity="1" fill-rule="nonzero"/><path fill="#a0dcff" d="M 35.335938 32.535156 L 33.789062 32.535156 L 33.789062 34.082031 L 35.335938 34.082031 Z M 35.335938 32.535156 " fill-opacity="1" fill-rule="nonzero"/><path fill="#a0dcff" d="M 37.917969 32.535156 L 36.367188 32.535156 L 36.367188 34.082031 L 37.917969 34.082031 Z M 37.917969 32.535156 " fill-opacity="1" fill-rule="nonzero"/><path fill="#a0dcff" d="M 27.597656 29.957031 L 26.050781 29.957031 L 26.050781 31.503906 L 27.597656 31.503906 Z M 27.597656 29.957031 " fill-opacity="1" fill-rule="nonzero"/><path fill="#a0dcff" d="M 30.175781 29.957031 L 28.628906 29.957031 L 28.628906 31.503906 L 30.175781 31.503906 Z M 30.175781 29.957031 " fill-opacity="1" fill-rule="nonzero"/><path fill="#a0dcff" d="M 32.757812 29.957031 L 31.207031 29.957031 L 31.207031 31.503906 L 32.757812 31.503906 Z M 32.757812 29.957031 " fill-opacity="1" fill-rule="nonzero"/><path fill="#a0dcff" d="M 35.335938 29.957031 L 33.789062 29.957031 L 33.789062 31.503906 L 35.335938 31.503906 Z M 35.335938 29.957031 " fill-opacity="1" fill-rule="nonzero"/><path fill="#a0dcff" d="M 37.917969 29.957031 L 36.367188 29.957031 L 36.367188 31.503906 L 37.917969 31.503906 Z M 37.917969 29.957031 " fill-opacity="1" fill-rule="nonzero"/><path fill="#a0dcff" d="M 27.597656 27.375 L 26.050781 27.375 L 26.050781 28.925781 L 27.597656 28.925781 Z M 27.597656 27.375 " fill-opacity="1" fill-rule="nonzero"/><path fill="#a0dcff" d="M 30.175781 27.375 L 28.628906 27.375 L 28.628906 28.925781 L 30.175781 28.925781 Z M 30.175781 27.375 " fill-opacity="1" fill-rule="nonzero"/><path fill="#a0dcff" d="M 32.757812 27.375 L 31.207031 27.375 L 31.207031 28.925781 L 32.757812 28.925781 Z M 32.757812 27.375 " fill-opacity="1" fill-rule="nonzero"/><path fill="#a0dcff" d="M 35.335938 27.375 L 33.789062 27.375 L 33.789062 28.925781 L 35.335938 28.925781 Z M 35.335938 27.375 " fill-opacity="1" fill-rule="nonzero"/><path fill="#a0dcff" d="M 37.917969 27.375 L 36.367188 27.375 L 36.367188 28.925781 L 37.917969 28.925781 Z M 37.917969 27.375 " fill-opacity="1" fill-rule="nonzero"/><g clip-path="url(#87e3a64109)"><path fill="#2563eb" d="M 83.667969 93.765625 L 111.273438 93.765625 L 111.273438 66.160156 L 83.671875 66.160156 L 83.671875 93.765625 Z M 108.964844 91.457031 L 85.980469 91.457031 L 85.980469 68.46875 L 108.964844 68.46875 Z M 108.964844 91.457031 " fill-opacity="1" fill-rule="nonzero"/></g><g clip-path="url(#4f791144a4)"><path fill="#2563eb" d="M 0.632812 52.1875 L 15.585938 52.1875 L 15.585938 37.234375 L 0.632812 37.234375 Z M 13.273438 49.878906 L 2.941406 49.878906 L 2.941406 39.542969 L 13.273438 39.542969 Z M 13.273438 49.878906 " fill-opacity="1" fill-rule="nonzero"/></g><g clip-path="url(#3ad0c0ec31)"><path fill="#a0dcff" d="M 45.164062 28.164062 L 72.96875 28.164062 L 72.96875 0.359375 L 45.164062 0.359375 Z M 70.660156 25.855469 L 47.472656 25.855469 L 47.472656 2.667969 L 70.660156 2.667969 Z M 70.660156 25.855469 " fill-opacity="1" fill-rule="nonzero"/></g><path fill="#a0dcff" d="M 10.597656 74.628906 L 20.886719 74.628906 L 20.886719 64.339844 L 10.597656 64.339844 Z M 18.578125 72.320312 L 12.90625 72.320312 L 12.90625 66.648438 L 18.578125 66.648438 Z M 18.578125 72.320312 " fill-opacity="1" fill-rule="nonzero"/><path fill="#a0dcff" d="M 27.75 67.9375 L 29.820312 67.9375 L 29.820312 65.867188 L 27.75 65.867188 Z M 29.511719 67.632812 L 28.058594 67.632812 L 28.058594 66.175781 L 29.511719 66.175781 Z M 29.511719 67.632812 " fill-opacity="1" fill-rule="nonzero"/><path fill="#a0dcff" d="M 30.921875 67.9375 L 32.992188 67.9375 L 32.992188 65.867188 L 30.921875 65.867188 Z M 32.683594 67.632812 L 31.230469 67.632812 L 31.230469 66.175781 L 32.683594 66.175781 Z M 32.683594 67.632812 " fill-opacity="1" fill-rule="nonzero"/><path fill="#a0dcff" d="M 34.089844 67.9375 L 36.160156 67.9375 L 36.160156 65.867188 L 34.089844 65.867188 Z M 35.855469 67.632812 L 34.402344 67.632812 L 34.402344 66.175781 L 35.855469 66.175781 Z M 35.855469 67.632812 " fill-opacity="1" fill-rule="nonzero"/><path fill="#a0dcff" d="M 37.261719 67.9375 L 39.332031 67.9375 L 39.332031 65.867188 L 37.261719 65.867188 Z M 39.023438 67.632812 L 37.570312 67.632812 L 37.570312 66.175781 L 39.023438 66.175781 Z M 39.023438 67.632812 " fill-opacity="1" fill-rule="nonzero"/><path fill="#a0dcff" d="M 27.75 64.769531 L 29.820312 64.769531 L 29.820312 62.699219 L 27.75 62.699219 Z M 29.511719 64.460938 L 28.058594 64.460938 L 28.058594 63.007812 L 29.511719 63.007812 Z M 29.511719 64.460938 " fill-opacity="1" fill-rule="nonzero"/><path fill="#a0dcff" d="M 30.921875 64.769531 L 32.992188 64.769531 L 32.992188 62.699219 L 30.921875 62.699219 Z M 32.683594 64.460938 L 31.230469 64.460938 L 31.230469 63.007812 L 32.683594 63.007812 Z M 32.683594 64.460938 " fill-opacity="1" fill-rule="nonzero"/><path fill="#a0dcff" d="M 34.089844 64.769531 L 36.160156 64.769531 L 36.160156 62.699219 L 34.089844 62.699219 Z M 35.855469 64.460938 L 34.402344 64.460938 L 34.402344 63.007812 L 35.855469 63.007812 Z M 35.855469 64.460938 " fill-opacity="1" fill-rule="nonzero"/><path fill="#a0dcff" d="M 37.261719 64.769531 L 39.332031 64.769531 L 39.332031 62.699219 L 37.261719 62.699219 Z M 39.023438 64.460938 L 37.570312 64.460938 L 37.570312 63.007812 L 39.023438 63.007812 Z M 39.023438 64.460938 " fill-opacity="1" fill-rule="nonzero"/><path fill="#a0dcff" d="M 27.75 61.597656 L 29.820312 61.597656 L 29.820312 59.527344 L 27.75 59.527344 Z M 29.511719 61.289062 L 28.058594 61.289062 L 28.058594 59.835938 L 29.511719 59.835938 Z M 29.511719 61.289062 " fill-opacity="1" fill-rule="nonzero"/><path fill="#a0dcff" d="M 30.921875 61.597656 L 32.992188 61.597656 L 32.992188 59.527344 L 30.921875 59.527344 Z M 32.683594 61.289062 L 31.230469 61.289062 L 31.230469 59.835938 L 32.683594 59.835938 Z M 32.683594 61.289062 " fill-opacity="1" fill-rule="nonzero"/><path fill="#a0dcff" d="M 34.089844 61.597656 L 36.160156 61.597656 L 36.160156 59.527344 L 34.089844 59.527344 Z M 35.855469 61.289062 L 34.402344 61.289062 L 34.402344 59.835938 L 35.855469 59.835938 Z M 35.855469 61.289062 " fill-opacity="1" fill-rule="nonzero"/><path fill="#a0dcff" d="M 37.261719 61.597656 L 39.332031 61.597656 L 39.332031 59.527344 L 37.261719 59.527344 Z M 39.023438 61.289062 L 37.570312 61.289062 L 37.570312 59.835938 L 39.023438 59.835938 Z M 39.023438 61.289062 " fill-opacity="1" fill-rule="nonzero"/><path fill="#a0dcff" d="M 27.75 58.425781 L 29.820312 58.425781 L 29.820312 56.355469 L 27.75 56.355469 Z M 29.511719 58.117188 L 28.058594 58.117188 L 28.058594 56.664062 L 29.511719 56.664062 Z M 29.511719 58.117188 " fill-opacity="1" fill-rule="nonzero"/><path fill="#a0dcff" d="M 30.921875 58.425781 L 32.992188 58.425781 L 32.992188 56.355469 L 30.921875 56.355469 Z M 32.683594 58.117188 L 31.230469 58.117188 L 31.230469 56.664062 L 32.683594 56.664062 Z M 32.683594 58.117188 " fill-opacity="1" fill-rule="nonzero"/><path fill="#a0dcff" d="M 34.089844 58.425781 L 36.160156 58.425781 L 36.160156 56.355469 L 34.089844 56.355469 Z M 35.855469 58.117188 L 34.402344 58.117188 L 34.402344 56.664062 L 35.855469 56.664062 Z M 35.855469 58.117188 " fill-opacity="1" fill-rule="nonzero"/><path fill="#a0dcff" d="M 37.261719 58.425781 L 39.332031 58.425781 L 39.332031 56.355469 L 37.261719 56.355469 Z M 39.023438 58.117188 L 37.570312 58.117188 L 37.570312 56.664062 L 39.023438 56.664062 Z M 39.023438 58.117188 " fill-opacity="1" fill-rule="nonzero"/><path fill="#2563eb" d="M 55.71875 76.425781 L 59.203125 76.425781 L 59.203125 72.941406 L 55.71875 72.941406 Z M 58.894531 76.117188 L 56.027344 76.117188 L 56.027344 73.25 L 58.894531 73.25 Z M 58.894531 76.117188 " fill-opacity="1" fill-rule="nonzero"/><path fill="#2563eb" d="M 61.433594 76.425781 L 64.917969 76.425781 L 64.917969 72.941406 L 61.433594 72.941406 Z M 64.609375 76.117188 L 61.742188 76.117188 L 61.742188 73.25 L 64.609375 73.25 Z M 64.609375 76.117188 " fill-opacity="1" fill-rule="nonzero"/><path fill="#2563eb" d="M 67.148438 76.425781 L 70.632812 76.425781 L 70.632812 72.941406 L 67.148438 72.941406 Z M 70.328125 76.117188 L 67.457031 76.117188 L 67.457031 73.25 L 70.328125 73.25 Z M 70.328125 76.117188 " fill-opacity="1" fill-rule="nonzero"/><path fill="#2563eb" d="M 55.71875 70.707031 L 59.203125 70.707031 L 59.203125 67.226562 L 55.71875 67.226562 Z M 58.894531 70.402344 L 56.027344 70.402344 L 56.027344 67.53125 L 58.894531 67.53125 Z M 58.894531 70.402344 " fill-opacity="1" fill-rule="nonzero"/><path fill="#2563eb" d="M 61.433594 70.707031 L 64.917969 70.707031 L 64.917969 67.226562 L 61.433594 67.226562 Z M 64.609375 70.402344 L 61.742188 70.402344 L 61.742188 67.53125 L 64.609375 67.53125 Z M 64.609375 70.402344 " fill-opacity="1" fill-rule="nonzero"/><path fill="#2563eb" d="M 67.148438 70.707031 L 70.632812 70.707031 L 70.632812 67.226562 L 67.148438 67.226562 Z M 70.328125 70.402344 L 67.457031 70.402344 L 67.457031 67.53125 L 70.328125 67.53125 Z M 70.328125 70.402344 " fill-opacity="1" fill-rule="nonzero"/><path fill="#2563eb" d="M 55.71875 64.992188 L 59.203125 64.992188 L 59.203125 61.507812 L 55.71875 61.507812 Z M 58.894531 64.6875 L 56.027344 64.6875 L 56.027344 61.816406 L 58.894531 61.816406 Z M 58.894531 64.6875 " fill-opacity="1" fill-rule="nonzero"/><path fill="#2563eb" d="M 61.433594 64.992188 L 64.917969 64.992188 L 64.917969 61.507812 L 61.433594 61.507812 Z M 64.609375 64.6875 L 61.742188 64.6875 L 61.742188 61.816406 L 64.609375 61.816406 Z M 64.609375 64.6875 " fill-opacity="1" fill-rule="nonzero"/><path fill="#2563eb" d="M 67.148438 64.992188 L 70.632812 64.992188 L 70.632812 61.507812 L 67.148438 61.507812 Z M 70.328125 64.6875 L 67.457031 64.6875 L 67.457031 61.816406 L 70.328125 61.816406 Z M 70.328125 64.6875 " fill-opacity="1" fill-rule="nonzero"/><path fill="#2563eb" d="M 55.71875 59.277344 L 59.203125 59.277344 L 59.203125 55.792969 L 55.71875 55.792969 Z M 58.894531 58.96875 L 56.027344 58.96875 L 56.027344 56.101562 L 58.894531 56.101562 Z M 58.894531 58.96875 " fill-opacity="1" fill-rule="nonzero"/><path fill="#2563eb" d="M 61.433594 59.277344 L 64.917969 59.277344 L 64.917969 55.792969 L 61.433594 55.792969 Z M 64.609375 58.96875 L 61.742188 58.96875 L 61.742188 56.101562 L 64.609375 56.101562 Z M 64.609375 58.96875 " fill-opacity="1" fill-rule="nonzero"/><path fill="#2563eb" d="M 67.148438 59.277344 L 70.632812 59.277344 L 70.632812 55.792969 L 67.148438 55.792969 Z M 70.328125 58.96875 L 67.457031 58.96875 L 67.457031 56.101562 L 70.328125 56.101562 Z M 70.328125 58.96875 " fill-opacity="1" fill-rule="nonzero"/></g></g></g></g></g></g></g><g clip-path="url(#24b8939253)"><g mask="url(#ab13b8d44d)"><g transform="matrix(1, 0, 0, 1, 0, 382)"><g clip-path="url(#9c709e680c)"><g clip-path="url(#c60888ccf3)"><g transform="matrix(1, 0, 0, 1, 1, 1)"><g clip-path="url(#28cc724607)"><g clip-path="url(#88bb419ae7)"><path stroke-linecap="butt" transform="matrix(-0.619331, 0, 0, 0.618672, 248.804197, -0.0920264)" fill="none" stroke-linejoin="miter" d="M 251.000713 44.302063 L 225.998955 87.602998 L 176.001746 87.602998 L 150.999988 44.302063 L 176.001746 1.001129 L 225.998955 1.001129 Z M 251.000713 44.302063 " stroke="#000000" stroke-width="1" stroke-opacity="1" stroke-miterlimit="4"/></g><path stroke-linecap="butt" transform="matrix(-0.619331, 0, 0, 0.618672, 248.804197, -0.0920264)" fill="none" stroke-linejoin="miter" d="M 176.001746 174.299575 L 150.999988 217.60051 L 101.002778 217.60051 L 76.00102 174.299575 L 101.002778 130.998641 L 150.999988 130.998641 Z M 176.001746 174.299575 " stroke="#000000" stroke-width="1" stroke-opacity="1" stroke-miterlimit="4"/><path stroke-linecap="butt" transform="matrix(-0.619331, 0, 0, 0.618672, 248.804197, -0.0920264)" fill="none" stroke-linejoin="miter" d="M 251.000713 131.30171 L 225.998955 174.602644 L 176.001746 174.602644 L 150.999988 131.30171 L 176.001746 88.000775 L 225.998955 88.000775 Z M 251.000713 131.30171 " stroke="#000000" stroke-width="1" stroke-opacity="1" stroke-miterlimit="4"/><g clip-path="url(#a8fe25bd76)"><path stroke-linecap="butt" transform="matrix(-0.619331, 0, 0, 0.618672, 248.804197, -0.0920264)" fill="none" stroke-linejoin="miter" d="M 176.001746 261.299221 L 150.999988 304.600156 L 101.002778 304.600156 L 76.00102 261.299221 L 101.002778 217.998287 L 150.999988 217.998287 Z M 176.001746 261.299221 " stroke="#000000" stroke-width="1" stroke-opacity="1" stroke-miterlimit="4"/></g><path stroke-linecap="butt" transform="matrix(-0.619331, 0, 0, 0.618672, 248.804197, -0.0920264)" fill="none" stroke-linejoin="miter" d="M 176.001746 87.299929 L 150.999988 130.600863 L 101.002778 130.600863 L 76.00102 87.299929 L 101.002778 43.998995 L 150.999988 43.998995 Z M 176.001746 87.299929 " stroke="#000000" stroke-width="1" stroke-opacity="1" stroke-miterlimit="4"/><g clip-path="url(#c0500854f5)"><path stroke-linecap="butt" transform="matrix(-0.619331, 0, 0, 0.618672, 248.804197, -0.0920264)" fill="none" stroke-linejoin="miter" d="M 101.002778 217.303755 L 76.00102 260.604689 L 25.997504 260.604689 L 1.002053 217.303755 L 25.997504 174.00282 L 76.00102 174.00282 Z M 101.002778 217.303755 " stroke="#000000" stroke-width="1" stroke-opacity="1" stroke-miterlimit="4"/></g><g clip-path="url(#0544b74a27)"><path stroke-linecap="butt" transform="matrix(-0.619331, 0, 0, 0.618672, 248.804197, -0.0920264)" fill="none" stroke-linejoin="miter" d="M 400.998647 44.302063 L 375.996889 87.602998 L 325.99968 87.602998 L 300.997922 44.302063 L 325.99968 1.001129 L 375.996889 1.001129 Z M 400.998647 44.302063 " stroke="#000000" stroke-width="1" stroke-opacity="1" stroke-miterlimit="4"/></g><path stroke-linecap="butt" transform="matrix(-0.619331, 0, 0, 0.618672, 248.804197, -0.0920264)" fill="none" stroke-linejoin="miter" d="M 325.99968 174.299575 L 300.997922 217.60051 L 251.000713 217.60051 L 225.998955 174.299575 L 251.000713 130.998641 L 300.997922 130.998641 Z M 325.99968 174.299575 " stroke="#000000" stroke-width="1" stroke-opacity="1" stroke-miterlimit="4"/><g clip-path="url(#c3a789195d)"><path stroke-linecap="butt" transform="matrix(-0.619331, 0, 0, 0.618672, 248.804197, -0.0920264)" fill="none" stroke-linejoin="miter" d="M 400.998647 131.30171 L 375.996889 174.602644 L 325.99968 174.602644 L 300.997922 131.30171 L 325.99968 88.000775 L 375.996889 88.000775 Z M 400.998647 131.30171 " stroke="#000000" stroke-width="1" stroke-opacity="1" stroke-miterlimit="4"/></g><g clip-path="url(#aa51be2c39)"><path stroke-linecap="butt" transform="matrix(-0.619331, 0, 0, 0.618672, 248.804197, -0.0920264)" fill="none" stroke-linejoin="miter" d="M 325.99968 261.299221 L 300.997922 304.600156 L 251.000713 304.600156 L 225.998955 261.299221 L 251.000713 217.998287 L 300.997922 217.998287 Z M 325.99968 261.299221 " stroke="#000000" stroke-width="1" stroke-opacity="1" stroke-miterlimit="4"/></g><path stroke-linecap="butt" transform="matrix(-0.619331, 0, 0, 0.618672, 248.804197, -0.0920264)" fill="none" stroke-linejoin="miter" d="M 325.99968 87.299929 L 300.997922 130.600863 L 251.000713 130.600863 L 225.998955 87.299929 L 251.000713 43.998995 L 300.997922 43.998995 Z M 325.99968 87.299929 " stroke="#000000" stroke-width="1" stroke-opacity="1" stroke-miterlimit="4"/><path stroke-linecap="butt" transform="matrix(-0.619331, 0, 0, 0.618672, 248.804197, -0.0920264)" fill="none" stroke-linejoin="miter" d="M 251.000713 217.303755 L 225.998955 260.604689 L 176.001746 260.604689 L 150.999988 217.303755 L 176.001746 174.00282 L 225.998955 174.00282 Z M 251.000713 217.303755 " stroke="#000000" stroke-width="1" stroke-opacity="1" stroke-miterlimit="4"/></g></g></g></g></g></g></g></g></g></g></g></g></svg>