<svg xmlns="http://www.w3.org/2000/svg" xmlns:xlink="http://www.w3.org/1999/xlink" width="1080" zoomAndPan="magnify" viewBox="0 0 810 1439.999935" height="1920" preserveAspectRatio="xMidYMid meet" version="1.0"><defs><filter x="0%" y="0%" width="100%" height="100%" id="67fdf9f21a"><feColorMatrix values="0 0 0 0 1 0 0 0 0 1 0 0 0 0 1 0 0 0 1 0" color-interpolation-filters="sRGB"/></filter><mask id="254dc93923"><g filter="url(#67fdf9f21a)"><rect x="-81" width="972" fill="#000000" y="-143.999994" height="1727.999922" fill-opacity="0.5"/></g></mask><clipPath id="51e434b4ca"><path d="M 1 278 L 118 278 L 118 394.71875 L 1 394.71875 Z M 1 278 " clip-rule="nonzero"/></clipPath><clipPath id="e14e35ebd2"><path d="M 404 156 L 467.378906 156 L 467.378906 220 L 404 220 Z M 404 156 " clip-rule="nonzero"/></clipPath><clipPath id="fe5a2b6935"><rect x="0" width="468" y="0" height="395"/></clipPath><mask id="ae1515201d"><g filter="url(#67fdf9f21a)"><rect x="-81" width="972" fill="#000000" y="-143.999994" height="1727.999922" fill-opacity="0.5"/></g></mask><clipPath id="8a73e29d9e"><path d="M 0.90625 0.644531 L 243 0.644531 L 243 222.644531 L 0.90625 222.644531 Z M 0.90625 0.644531 " clip-rule="nonzero"/></clipPath><clipPath id="ebac9defff"><path d="M 240 127 L 243 127 L 243 135 L 240 135 Z M 240 127 " clip-rule="nonzero"/></clipPath><clipPath id="6b9c947c99"><path d="M 240 115 L 243 115 L 243 123 L 240 123 Z M 240 115 " clip-rule="nonzero"/></clipPath><clipPath id="65668fcae8"><path d="M 240 104 L 243 104 L 243 112 L 240 112 Z M 240 104 " clip-rule="nonzero"/></clipPath><clipPath id="71c3029706"><path d="M 240 92 L 243 92 L 243 100 L 240 100 Z M 240 92 " clip-rule="nonzero"/></clipPath><clipPath id="af1a77db58"><path d="M 240 80 L 243 80 L 243 88 L 240 88 Z M 240 80 " clip-rule="nonzero"/></clipPath><clipPath id="b98d6cb6f7"><path d="M 198 157 L 243 157 L 243 222.644531 L 198 222.644531 Z M 198 157 " clip-rule="nonzero"/></clipPath><clipPath id="cf2b2f04d1"><path d="M 1.1875 88 L 37 88 L 37 125 L 1.1875 125 Z M 1.1875 88 " clip-rule="nonzero"/></clipPath><clipPath id="e7b0044c06"><path d="M 106 0.644531 L 174 0.644531 L 174 67 L 106 67 Z M 106 0.644531 " clip-rule="nonzero"/></clipPath><clipPath id="1deee1f7f0"><rect x="0" width="243" y="0" height="223"/></clipPath><clipPath id="120d66f6c4"><rect x="0" width="243" y="0" height="224"/></clipPath><mask id="ab6c27544b"><g filter="url(#67fdf9f21a)"><rect x="-81" width="972" fill="#000000" y="-143.999994" height="1727.999922" fill-opacity="0.4"/></g></mask><clipPath id="26a7d6f4ce"><path d="M 0 0.378906 L 591.601562 0.378906 L 591.601562 449.628906 L 0 449.628906 Z M 0 0.378906 " clip-rule="nonzero"/></clipPath><clipPath id="7688fb0c50"><path d="M 213 0.378906 L 378 0.378906 L 378 138 L 213 138 Z M 213 0.378906 " clip-rule="nonzero"/></clipPath><clipPath id="e7fec59942"><path d="M 324 312 L 489 312 L 489 449.628906 L 324 449.628906 Z M 324 312 " clip-rule="nonzero"/></clipPath><clipPath id="426b95677f"><path d="M 434 247 L 591.597656 247 L 591.597656 393 L 434 393 Z M 434 247 " clip-rule="nonzero"/></clipPath><clipPath id="9bdb2dd8e4"><path d="M 0 0.378906 L 157 0.378906 L 157 138 L 0 138 Z M 0 0.378906 " clip-rule="nonzero"/></clipPath><clipPath id="cfbe66ef87"><path d="M 0 121 L 157 121 L 157 266 L 0 266 Z M 0 121 " clip-rule="nonzero"/></clipPath><clipPath id="8c9c34621c"><path d="M 103 312 L 268 312 L 268 449.628906 L 103 449.628906 Z M 103 312 " clip-rule="nonzero"/></clipPath><clipPath id="26f4afe94a"><rect x="0" width="592" y="0" height="450"/></clipPath><clipPath id="a9ee2b9ee4"><rect x="0" width="592" y="0" height="450"/></clipPath></defs><rect x="-81" width="972" fill="#ffffff" y="-143.999994" height="1727.999922" fill-opacity="1"/><rect x="-81" width="972" fill="#ffffff" y="-143.999994" height="1727.999922" fill-opacity="1"/><g mask="url(#254dc93923)"><g transform="matrix(1, 0, 0, 1, 8, 80)"><g clip-path="url(#fe5a2b6935)"><path fill="#a0dcff" d="M 47.320312 131.15625 L 265.207031 131.15625 L 265.207031 349.042969 L 47.320312 349.042969 Z M 47.320312 131.15625 " fill-opacity="1" fill-rule="nonzero"/><path fill="#a0dcff" d="M 374.15625 176.789062 L 449.023438 176.789062 L 449.023438 251.652344 L 374.15625 251.652344 Z M 374.15625 176.789062 " fill-opacity="1" fill-rule="nonzero"/><path fill="#2563eb" d="M 278.414062 259.757812 L 367.699219 259.757812 L 367.699219 349.042969 L 278.414062 349.042969 Z M 278.414062 259.757812 " fill-opacity="1" fill-rule="nonzero"/><path fill="#2563eb" d="M 215.875 59.585938 L 342.523438 59.585938 L 342.523438 186.234375 L 215.875 186.234375 Z M 215.875 59.585938 " fill-opacity="1" fill-rule="nonzero"/><path fill="#2563eb" d="M 113.699219 225.039062 L 126 225.039062 L 126 237.339844 L 113.699219 237.339844 Z M 113.699219 225.039062 " fill-opacity="1" fill-rule="nonzero"/><path fill="#2563eb" d="M 93.203125 225.039062 L 105.503906 225.039062 L 105.503906 237.339844 L 93.203125 237.339844 Z M 93.203125 225.039062 " fill-opacity="1" fill-rule="nonzero"/><path fill="#2563eb" d="M 72.710938 225.039062 L 85.011719 225.039062 L 85.011719 237.339844 L 72.710938 237.339844 Z M 72.710938 225.039062 " fill-opacity="1" fill-rule="nonzero"/><path fill="#2563eb" d="M 52.214844 225.039062 L 64.515625 225.039062 L 64.515625 237.339844 L 52.214844 237.339844 Z M 52.214844 225.039062 " fill-opacity="1" fill-rule="nonzero"/><path fill="#2563eb" d="M 31.722656 225.039062 L 44.019531 225.039062 L 44.019531 237.339844 L 31.722656 237.339844 Z M 31.722656 225.039062 " fill-opacity="1" fill-rule="nonzero"/><path fill="#2563eb" d="M 113.699219 204.542969 L 126 204.542969 L 126 216.84375 L 113.699219 216.84375 Z M 113.699219 204.542969 " fill-opacity="1" fill-rule="nonzero"/><path fill="#2563eb" d="M 93.203125 204.542969 L 105.503906 204.542969 L 105.503906 216.84375 L 93.203125 216.84375 Z M 93.203125 204.542969 " fill-opacity="1" fill-rule="nonzero"/><path fill="#2563eb" d="M 72.710938 204.542969 L 85.011719 204.542969 L 85.011719 216.84375 L 72.710938 216.84375 Z M 72.710938 204.542969 " fill-opacity="1" fill-rule="nonzero"/><path fill="#2563eb" d="M 52.214844 204.542969 L 64.515625 204.542969 L 64.515625 216.84375 L 52.214844 216.84375 Z M 52.214844 204.542969 " fill-opacity="1" fill-rule="nonzero"/><path fill="#2563eb" d="M 31.722656 204.542969 L 44.019531 204.542969 L 44.019531 216.84375 L 31.722656 216.84375 Z M 31.722656 204.542969 " fill-opacity="1" fill-rule="nonzero"/><path fill="#2563eb" d="M 113.699219 184.050781 L 126 184.050781 L 126 196.347656 L 113.699219 196.347656 Z M 113.699219 184.050781 " fill-opacity="1" fill-rule="nonzero"/><path fill="#2563eb" d="M 93.203125 184.050781 L 105.503906 184.050781 L 105.503906 196.347656 L 93.203125 196.347656 Z M 93.203125 184.050781 " fill-opacity="1" fill-rule="nonzero"/><path fill="#2563eb" d="M 72.710938 184.050781 L 85.011719 184.050781 L 85.011719 196.347656 L 72.710938 196.347656 Z M 72.710938 184.050781 " fill-opacity="1" fill-rule="nonzero"/><path fill="#2563eb" d="M 52.214844 184.050781 L 64.515625 184.050781 L 64.515625 196.347656 L 52.214844 196.347656 Z M 52.214844 184.050781 " fill-opacity="1" fill-rule="nonzero"/><path fill="#2563eb" d="M 31.722656 184.050781 L 44.019531 184.050781 L 44.019531 196.347656 L 31.722656 196.347656 Z M 31.722656 184.050781 " fill-opacity="1" fill-rule="nonzero"/><path fill="#2563eb" d="M 113.699219 163.554688 L 126 163.554688 L 126 175.855469 L 113.699219 175.855469 Z M 113.699219 163.554688 " fill-opacity="1" fill-rule="nonzero"/><path fill="#2563eb" d="M 93.203125 163.554688 L 105.503906 163.554688 L 105.503906 175.855469 L 93.203125 175.855469 Z M 93.203125 163.554688 " fill-opacity="1" fill-rule="nonzero"/><path fill="#2563eb" d="M 72.710938 163.554688 L 85.011719 163.554688 L 85.011719 175.855469 L 72.710938 175.855469 Z M 72.710938 163.554688 " fill-opacity="1" fill-rule="nonzero"/><path fill="#2563eb" d="M 52.214844 163.554688 L 64.515625 163.554688 L 64.515625 175.855469 L 52.214844 175.855469 Z M 52.214844 163.554688 " fill-opacity="1" fill-rule="nonzero"/><path fill="#2563eb" d="M 31.722656 163.554688 L 44.019531 163.554688 L 44.019531 175.855469 L 31.722656 175.855469 Z M 31.722656 163.554688 " fill-opacity="1" fill-rule="nonzero"/><path fill="#2563eb" d="M 113.699219 143.0625 L 126 143.0625 L 126 155.359375 L 113.699219 155.359375 Z M 113.699219 143.0625 " fill-opacity="1" fill-rule="nonzero"/><path fill="#2563eb" d="M 93.203125 143.0625 L 105.503906 143.0625 L 105.503906 155.359375 L 93.203125 155.359375 Z M 93.203125 143.0625 " fill-opacity="1" fill-rule="nonzero"/><path fill="#2563eb" d="M 72.710938 143.0625 L 85.011719 143.0625 L 85.011719 155.359375 L 72.710938 155.359375 Z M 72.710938 143.0625 " fill-opacity="1" fill-rule="nonzero"/><path fill="#2563eb" d="M 52.214844 143.0625 L 64.515625 143.0625 L 64.515625 155.359375 L 52.214844 155.359375 Z M 52.214844 143.0625 " fill-opacity="1" fill-rule="nonzero"/><path fill="#2563eb" d="M 31.722656 143.0625 L 44.019531 143.0625 L 44.019531 155.359375 L 31.722656 155.359375 Z M 31.722656 143.0625 " fill-opacity="1" fill-rule="nonzero"/><path fill="#a0dcff" d="M 353.582031 158.308594 L 360.105469 158.308594 L 360.105469 164.832031 L 353.582031 164.832031 Z M 353.582031 158.308594 " fill-opacity="1" fill-rule="nonzero"/><path fill="#a0dcff" d="M 342.71875 158.308594 L 349.238281 158.308594 L 349.238281 164.832031 L 342.71875 164.832031 Z M 342.71875 158.308594 " fill-opacity="1" fill-rule="nonzero"/><path fill="#a0dcff" d="M 331.84375 158.308594 L 338.367188 158.308594 L 338.367188 164.832031 L 331.84375 164.832031 Z M 331.84375 158.308594 " fill-opacity="1" fill-rule="nonzero"/><path fill="#a0dcff" d="M 320.976562 158.308594 L 327.5 158.308594 L 327.5 164.832031 L 320.976562 164.832031 Z M 320.976562 158.308594 " fill-opacity="1" fill-rule="nonzero"/><path fill="#a0dcff" d="M 310.105469 158.308594 L 316.628906 158.308594 L 316.628906 164.832031 L 310.105469 164.832031 Z M 310.105469 158.308594 " fill-opacity="1" fill-rule="nonzero"/><path fill="#a0dcff" d="M 353.582031 147.445312 L 360.105469 147.445312 L 360.105469 153.964844 L 353.582031 153.964844 Z M 353.582031 147.445312 " fill-opacity="1" fill-rule="nonzero"/><path fill="#a0dcff" d="M 342.71875 147.445312 L 349.238281 147.445312 L 349.238281 153.964844 L 342.71875 153.964844 Z M 342.71875 147.445312 " fill-opacity="1" fill-rule="nonzero"/><path fill="#a0dcff" d="M 331.84375 147.445312 L 338.367188 147.445312 L 338.367188 153.964844 L 331.84375 153.964844 Z M 331.84375 147.445312 " fill-opacity="1" fill-rule="nonzero"/><path fill="#a0dcff" d="M 320.976562 147.445312 L 327.5 147.445312 L 327.5 153.964844 L 320.976562 153.964844 Z M 320.976562 147.445312 " fill-opacity="1" fill-rule="nonzero"/><path fill="#a0dcff" d="M 310.105469 147.445312 L 316.628906 147.445312 L 316.628906 153.964844 L 310.105469 153.964844 Z M 310.105469 147.445312 " fill-opacity="1" fill-rule="nonzero"/><path fill="#a0dcff" d="M 353.582031 136.570312 L 360.105469 136.570312 L 360.105469 143.09375 L 353.582031 143.09375 Z M 353.582031 136.570312 " fill-opacity="1" fill-rule="nonzero"/><path fill="#a0dcff" d="M 342.71875 136.570312 L 349.238281 136.570312 L 349.238281 143.09375 L 342.71875 143.09375 Z M 342.71875 136.570312 " fill-opacity="1" fill-rule="nonzero"/><path fill="#a0dcff" d="M 331.84375 136.570312 L 338.367188 136.570312 L 338.367188 143.09375 L 331.84375 143.09375 Z M 331.84375 136.570312 " fill-opacity="1" fill-rule="nonzero"/><path fill="#a0dcff" d="M 320.976562 136.570312 L 327.5 136.570312 L 327.5 143.09375 L 320.976562 143.09375 Z M 320.976562 136.570312 " fill-opacity="1" fill-rule="nonzero"/><path fill="#a0dcff" d="M 310.105469 136.570312 L 316.628906 136.570312 L 316.628906 143.09375 L 310.105469 143.09375 Z M 310.105469 136.570312 " fill-opacity="1" fill-rule="nonzero"/><path fill="#a0dcff" d="M 353.582031 125.703125 L 360.105469 125.703125 L 360.105469 132.226562 L 353.582031 132.226562 Z M 353.582031 125.703125 " fill-opacity="1" fill-rule="nonzero"/><path fill="#a0dcff" d="M 342.71875 125.703125 L 349.238281 125.703125 L 349.238281 132.226562 L 342.71875 132.226562 Z M 342.71875 125.703125 " fill-opacity="1" fill-rule="nonzero"/><path fill="#a0dcff" d="M 331.84375 125.703125 L 338.367188 125.703125 L 338.367188 132.226562 L 331.84375 132.226562 Z M 331.84375 125.703125 " fill-opacity="1" fill-rule="nonzero"/><path fill="#a0dcff" d="M 320.976562 125.703125 L 327.5 125.703125 L 327.5 132.226562 L 320.976562 132.226562 Z M 320.976562 125.703125 " fill-opacity="1" fill-rule="nonzero"/><path fill="#a0dcff" d="M 310.105469 125.703125 L 316.628906 125.703125 L 316.628906 132.226562 L 310.105469 132.226562 Z M 310.105469 125.703125 " fill-opacity="1" fill-rule="nonzero"/><path fill="#a0dcff" d="M 353.582031 114.839844 L 360.105469 114.839844 L 360.105469 121.359375 L 353.582031 121.359375 Z M 353.582031 114.839844 " fill-opacity="1" fill-rule="nonzero"/><path fill="#a0dcff" d="M 342.71875 114.839844 L 349.238281 114.839844 L 349.238281 121.359375 L 342.71875 121.359375 Z M 342.71875 114.839844 " fill-opacity="1" fill-rule="nonzero"/><path fill="#a0dcff" d="M 331.84375 114.839844 L 338.367188 114.839844 L 338.367188 121.359375 L 331.84375 121.359375 Z M 331.84375 114.839844 " fill-opacity="1" fill-rule="nonzero"/><path fill="#a0dcff" d="M 320.976562 114.839844 L 327.5 114.839844 L 327.5 121.359375 L 320.976562 121.359375 Z M 320.976562 114.839844 " fill-opacity="1" fill-rule="nonzero"/><path fill="#a0dcff" d="M 310.105469 114.839844 L 316.628906 114.839844 L 316.628906 121.359375 L 310.105469 121.359375 Z M 310.105469 114.839844 " fill-opacity="1" fill-rule="nonzero"/><g clip-path="url(#51e434b4ca)"><path fill="#2563eb" d="M 117.351562 394.539062 L 1.046875 394.539062 L 1.046875 278.242188 L 117.34375 278.242188 L 117.34375 394.539062 Z M 10.773438 384.8125 L 107.617188 384.8125 L 107.617188 287.96875 L 10.773438 287.96875 Z M 10.773438 384.8125 " fill-opacity="1" fill-rule="nonzero"/></g><g clip-path="url(#e14e35ebd2)"><path fill="#2563eb" d="M 467.183594 219.367188 L 404.195312 219.367188 L 404.195312 156.378906 L 467.183594 156.378906 Z M 413.925781 209.640625 L 457.464844 209.640625 L 457.464844 166.101562 L 413.925781 166.101562 Z M 413.925781 209.640625 " fill-opacity="1" fill-rule="nonzero"/></g><path fill="#a0dcff" d="M 279.566406 118.152344 L 162.4375 118.152344 L 162.4375 1.019531 L 279.566406 1.019531 Z M 172.160156 108.425781 L 269.84375 108.425781 L 269.84375 10.746094 L 172.160156 10.746094 Z M 172.160156 108.425781 " fill-opacity="1" fill-rule="nonzero"/><path fill="#a0dcff" d="M 425.199219 313.910156 L 381.859375 313.910156 L 381.859375 270.566406 L 425.199219 270.566406 Z M 391.582031 304.183594 L 415.476562 304.183594 L 415.476562 280.292969 L 391.582031 280.292969 Z M 391.582031 304.183594 " fill-opacity="1" fill-rule="nonzero"/><path fill="#a0dcff" d="M 352.941406 285.730469 L 344.222656 285.730469 L 344.222656 277.011719 L 352.941406 277.011719 Z M 345.519531 284.433594 L 351.644531 284.433594 L 351.644531 278.308594 L 345.519531 278.308594 Z M 345.519531 284.433594 " fill-opacity="1" fill-rule="nonzero"/><path fill="#a0dcff" d="M 339.578125 285.730469 L 330.859375 285.730469 L 330.859375 277.011719 L 339.578125 277.011719 Z M 332.15625 284.433594 L 338.28125 284.433594 L 338.28125 278.308594 L 332.15625 278.308594 Z M 332.15625 284.433594 " fill-opacity="1" fill-rule="nonzero"/><path fill="#a0dcff" d="M 326.222656 285.730469 L 317.503906 285.730469 L 317.503906 277.011719 L 326.222656 277.011719 Z M 318.792969 284.433594 L 324.921875 284.433594 L 324.921875 278.308594 L 318.792969 278.308594 Z M 318.792969 284.433594 " fill-opacity="1" fill-rule="nonzero"/><path fill="#a0dcff" d="M 312.859375 285.730469 L 304.140625 285.730469 L 304.140625 277.011719 L 312.859375 277.011719 Z M 305.4375 284.433594 L 311.5625 284.433594 L 311.5625 278.308594 L 305.4375 278.308594 Z M 305.4375 284.433594 " fill-opacity="1" fill-rule="nonzero"/><path fill="#a0dcff" d="M 352.941406 272.375 L 344.222656 272.375 L 344.222656 263.65625 L 352.941406 263.65625 Z M 345.519531 271.078125 L 351.644531 271.078125 L 351.644531 264.953125 L 345.519531 264.953125 Z M 345.519531 271.078125 " fill-opacity="1" fill-rule="nonzero"/><path fill="#a0dcff" d="M 339.578125 272.375 L 330.859375 272.375 L 330.859375 263.65625 L 339.578125 263.65625 Z M 332.15625 271.078125 L 338.28125 271.078125 L 338.28125 264.953125 L 332.15625 264.953125 Z M 332.15625 271.078125 " fill-opacity="1" fill-rule="nonzero"/><path fill="#a0dcff" d="M 326.222656 272.375 L 317.503906 272.375 L 317.503906 263.65625 L 326.222656 263.65625 Z M 318.792969 271.078125 L 324.921875 271.078125 L 324.921875 264.953125 L 318.792969 264.953125 Z M 318.792969 271.078125 " fill-opacity="1" fill-rule="nonzero"/><path fill="#a0dcff" d="M 312.859375 272.375 L 304.140625 272.375 L 304.140625 263.65625 L 312.859375 263.65625 Z M 305.4375 271.078125 L 311.5625 271.078125 L 311.5625 264.953125 L 305.4375 264.953125 Z M 305.4375 271.078125 " fill-opacity="1" fill-rule="nonzero"/><path fill="#a0dcff" d="M 352.941406 259.011719 L 344.222656 259.011719 L 344.222656 250.292969 L 352.941406 250.292969 Z M 345.519531 257.714844 L 351.644531 257.714844 L 351.644531 251.589844 L 345.519531 251.589844 Z M 345.519531 257.714844 " fill-opacity="1" fill-rule="nonzero"/><path fill="#a0dcff" d="M 339.578125 259.011719 L 330.859375 259.011719 L 330.859375 250.292969 L 339.578125 250.292969 Z M 332.15625 257.714844 L 338.28125 257.714844 L 338.28125 251.589844 L 332.15625 251.589844 Z M 332.15625 257.714844 " fill-opacity="1" fill-rule="nonzero"/><path fill="#a0dcff" d="M 326.222656 259.011719 L 317.503906 259.011719 L 317.503906 250.292969 L 326.222656 250.292969 Z M 318.792969 257.714844 L 324.921875 257.714844 L 324.921875 251.589844 L 318.792969 251.589844 Z M 318.792969 257.714844 " fill-opacity="1" fill-rule="nonzero"/><path fill="#a0dcff" d="M 312.859375 259.011719 L 304.140625 259.011719 L 304.140625 250.292969 L 312.859375 250.292969 Z M 305.4375 257.714844 L 311.5625 257.714844 L 311.5625 251.589844 L 305.4375 251.589844 Z M 305.4375 257.714844 " fill-opacity="1" fill-rule="nonzero"/><path fill="#a0dcff" d="M 352.941406 245.648438 L 344.222656 245.648438 L 344.222656 236.929688 L 352.941406 236.929688 Z M 345.519531 244.351562 L 351.644531 244.351562 L 351.644531 238.226562 L 345.519531 238.226562 Z M 345.519531 244.351562 " fill-opacity="1" fill-rule="nonzero"/><path fill="#a0dcff" d="M 339.578125 245.648438 L 330.859375 245.648438 L 330.859375 236.929688 L 339.578125 236.929688 Z M 332.15625 244.351562 L 338.28125 244.351562 L 338.28125 238.226562 L 332.15625 238.226562 Z M 332.15625 244.351562 " fill-opacity="1" fill-rule="nonzero"/><path fill="#a0dcff" d="M 326.222656 245.648438 L 317.503906 245.648438 L 317.503906 236.929688 L 326.222656 236.929688 Z M 318.792969 244.351562 L 324.921875 244.351562 L 324.921875 238.226562 L 318.792969 238.226562 Z M 318.792969 244.351562 " fill-opacity="1" fill-rule="nonzero"/><path fill="#a0dcff" d="M 312.859375 245.648438 L 304.140625 245.648438 L 304.140625 236.929688 L 312.859375 236.929688 Z M 305.4375 244.351562 L 311.5625 244.351562 L 311.5625 238.226562 L 305.4375 238.226562 Z M 305.4375 244.351562 " fill-opacity="1" fill-rule="nonzero"/><path fill="#2563eb" d="M 235.109375 321.480469 L 220.429688 321.480469 L 220.429688 306.800781 L 235.109375 306.800781 Z M 221.726562 320.183594 L 233.8125 320.183594 L 233.8125 308.097656 L 221.726562 308.097656 Z M 221.726562 320.183594 " fill-opacity="1" fill-rule="nonzero"/><path fill="#2563eb" d="M 211.03125 321.480469 L 196.351562 321.480469 L 196.351562 306.800781 L 211.03125 306.800781 Z M 197.640625 320.183594 L 209.726562 320.183594 L 209.726562 308.097656 L 197.640625 308.097656 Z M 197.640625 320.183594 " fill-opacity="1" fill-rule="nonzero"/><path fill="#2563eb" d="M 186.945312 321.480469 L 172.265625 321.480469 L 172.265625 306.800781 L 186.945312 306.800781 Z M 173.5625 320.183594 L 185.648438 320.183594 L 185.648438 308.097656 L 173.5625 308.097656 Z M 173.5625 320.183594 " fill-opacity="1" fill-rule="nonzero"/><path fill="#2563eb" d="M 235.109375 297.402344 L 220.429688 297.402344 L 220.429688 282.722656 L 235.109375 282.722656 Z M 221.726562 296.105469 L 233.8125 296.105469 L 233.8125 284.019531 L 221.726562 284.019531 Z M 221.726562 296.105469 " fill-opacity="1" fill-rule="nonzero"/><path fill="#2563eb" d="M 211.03125 297.402344 L 196.351562 297.402344 L 196.351562 282.722656 L 211.03125 282.722656 Z M 197.640625 296.105469 L 209.726562 296.105469 L 209.726562 284.019531 L 197.640625 284.019531 Z M 197.640625 296.105469 " fill-opacity="1" fill-rule="nonzero"/><path fill="#2563eb" d="M 186.945312 297.402344 L 172.265625 297.402344 L 172.265625 282.722656 L 186.945312 282.722656 Z M 173.5625 296.105469 L 185.648438 296.105469 L 185.648438 284.019531 L 173.5625 284.019531 Z M 173.5625 296.105469 " fill-opacity="1" fill-rule="nonzero"/><path fill="#2563eb" d="M 235.109375 273.320312 L 220.429688 273.320312 L 220.429688 258.644531 L 235.109375 258.644531 Z M 221.726562 272.023438 L 233.8125 272.023438 L 233.8125 259.941406 L 221.726562 259.941406 Z M 221.726562 272.023438 " fill-opacity="1" fill-rule="nonzero"/><path fill="#2563eb" d="M 211.03125 273.320312 L 196.351562 273.320312 L 196.351562 258.644531 L 211.03125 258.644531 Z M 197.640625 272.023438 L 209.726562 272.023438 L 209.726562 259.941406 L 197.640625 259.941406 Z M 197.640625 272.023438 " fill-opacity="1" fill-rule="nonzero"/><path fill="#2563eb" d="M 186.945312 273.320312 L 172.265625 273.320312 L 172.265625 258.644531 L 186.945312 258.644531 Z M 173.5625 272.023438 L 185.648438 272.023438 L 185.648438 259.941406 L 173.5625 259.941406 Z M 173.5625 272.023438 " fill-opacity="1" fill-rule="nonzero"/><path fill="#2563eb" d="M 235.109375 249.234375 L 220.429688 249.234375 L 220.429688 234.554688 L 235.109375 234.554688 Z M 221.726562 247.9375 L 233.8125 247.9375 L 233.8125 235.851562 L 221.726562 235.851562 Z M 221.726562 247.9375 " fill-opacity="1" fill-rule="nonzero"/><path fill="#2563eb" d="M 211.03125 249.234375 L 196.351562 249.234375 L 196.351562 234.554688 L 211.03125 234.554688 Z M 197.640625 247.9375 L 209.726562 247.9375 L 209.726562 235.851562 L 197.640625 235.851562 Z M 197.640625 247.9375 " fill-opacity="1" fill-rule="nonzero"/><path fill="#2563eb" d="M 186.945312 249.234375 L 172.265625 249.234375 L 172.265625 234.554688 L 186.945312 234.554688 Z M 173.5625 247.9375 L 185.648438 247.9375 L 185.648438 235.851562 L 173.5625 235.851562 Z M 173.5625 247.9375 " fill-opacity="1" fill-rule="nonzero"/></g></g></g><g mask="url(#ae1515201d)"><g transform="matrix(1, 0, 0, 1, 567, 531)"><g clip-path="url(#120d66f6c4)"><g clip-path="url(#8a73e29d9e)"><g transform="matrix(1, 0, 0, 1, 0, -0.000000000000113687)"><g clip-path="url(#1deee1f7f0)"><path fill="#a0dcff" d="M 238.195312 74.183594 L 115.09375 74.183594 L 115.09375 197.285156 L 238.195312 197.285156 Z M 238.195312 74.183594 " fill-opacity="1" fill-rule="nonzero"/><path fill="#a0dcff" d="M 53.535156 99.964844 L 11.238281 99.964844 L 11.238281 142.261719 L 53.535156 142.261719 Z M 53.535156 99.964844 " fill-opacity="1" fill-rule="nonzero"/><path fill="#2563eb" d="M 107.628906 146.839844 L 57.183594 146.839844 L 57.183594 197.285156 L 107.628906 197.285156 Z M 107.628906 146.839844 " fill-opacity="1" fill-rule="nonzero"/><path fill="#2563eb" d="M 142.964844 33.746094 L 71.410156 33.746094 L 71.410156 105.300781 L 142.964844 105.300781 Z M 142.964844 33.746094 " fill-opacity="1" fill-rule="nonzero"/><path fill="#2563eb" d="M 200.691406 127.222656 L 193.742188 127.222656 L 193.742188 134.171875 L 200.691406 134.171875 Z M 200.691406 127.222656 " fill-opacity="1" fill-rule="nonzero"/><path fill="#2563eb" d="M 212.269531 127.222656 L 205.320312 127.222656 L 205.320312 134.171875 L 212.269531 134.171875 Z M 212.269531 127.222656 " fill-opacity="1" fill-rule="nonzero"/><path fill="#2563eb" d="M 223.851562 127.222656 L 216.902344 127.222656 L 216.902344 134.171875 L 223.851562 134.171875 Z M 223.851562 127.222656 " fill-opacity="1" fill-rule="nonzero"/><path fill="#2563eb" d="M 235.429688 127.222656 L 228.480469 127.222656 L 228.480469 134.171875 L 235.429688 134.171875 Z M 235.429688 127.222656 " fill-opacity="1" fill-rule="nonzero"/><g clip-path="url(#ebac9defff)"><path fill="#2563eb" d="M 247.007812 127.222656 L 240.058594 127.222656 L 240.058594 134.171875 L 247.007812 134.171875 Z M 247.007812 127.222656 " fill-opacity="1" fill-rule="nonzero"/></g><path fill="#2563eb" d="M 200.691406 115.644531 L 193.742188 115.644531 L 193.742188 122.59375 L 200.691406 122.59375 Z M 200.691406 115.644531 " fill-opacity="1" fill-rule="nonzero"/><path fill="#2563eb" d="M 212.269531 115.644531 L 205.320312 115.644531 L 205.320312 122.59375 L 212.269531 122.59375 Z M 212.269531 115.644531 " fill-opacity="1" fill-rule="nonzero"/><path fill="#2563eb" d="M 223.851562 115.644531 L 216.902344 115.644531 L 216.902344 122.59375 L 223.851562 122.59375 Z M 223.851562 115.644531 " fill-opacity="1" fill-rule="nonzero"/><path fill="#2563eb" d="M 235.429688 115.644531 L 228.480469 115.644531 L 228.480469 122.59375 L 235.429688 122.59375 Z M 235.429688 115.644531 " fill-opacity="1" fill-rule="nonzero"/><g clip-path="url(#6b9c947c99)"><path fill="#2563eb" d="M 247.007812 115.644531 L 240.058594 115.644531 L 240.058594 122.59375 L 247.007812 122.59375 Z M 247.007812 115.644531 " fill-opacity="1" fill-rule="nonzero"/></g><path fill="#2563eb" d="M 200.691406 104.066406 L 193.742188 104.066406 L 193.742188 111.015625 L 200.691406 111.015625 Z M 200.691406 104.066406 " fill-opacity="1" fill-rule="nonzero"/><path fill="#2563eb" d="M 212.269531 104.066406 L 205.320312 104.066406 L 205.320312 111.015625 L 212.269531 111.015625 Z M 212.269531 104.066406 " fill-opacity="1" fill-rule="nonzero"/><path fill="#2563eb" d="M 223.851562 104.066406 L 216.902344 104.066406 L 216.902344 111.015625 L 223.851562 111.015625 Z M 223.851562 104.066406 " fill-opacity="1" fill-rule="nonzero"/><path fill="#2563eb" d="M 235.429688 104.066406 L 228.480469 104.066406 L 228.480469 111.015625 L 235.429688 111.015625 Z M 235.429688 104.066406 " fill-opacity="1" fill-rule="nonzero"/><g clip-path="url(#65668fcae8)"><path fill="#2563eb" d="M 247.007812 104.066406 L 240.058594 104.066406 L 240.058594 111.015625 L 247.007812 111.015625 Z M 247.007812 104.066406 " fill-opacity="1" fill-rule="nonzero"/></g><path fill="#2563eb" d="M 200.691406 92.488281 L 193.742188 92.488281 L 193.742188 99.4375 L 200.691406 99.4375 Z M 200.691406 92.488281 " fill-opacity="1" fill-rule="nonzero"/><path fill="#2563eb" d="M 212.269531 92.488281 L 205.320312 92.488281 L 205.320312 99.4375 L 212.269531 99.4375 Z M 212.269531 92.488281 " fill-opacity="1" fill-rule="nonzero"/><path fill="#2563eb" d="M 223.851562 92.488281 L 216.902344 92.488281 L 216.902344 99.4375 L 223.851562 99.4375 Z M 223.851562 92.488281 " fill-opacity="1" fill-rule="nonzero"/><path fill="#2563eb" d="M 235.429688 92.488281 L 228.480469 92.488281 L 228.480469 99.4375 L 235.429688 99.4375 Z M 235.429688 92.488281 " fill-opacity="1" fill-rule="nonzero"/><g clip-path="url(#71c3029706)"><path fill="#2563eb" d="M 247.007812 92.488281 L 240.058594 92.488281 L 240.058594 99.4375 L 247.007812 99.4375 Z M 247.007812 92.488281 " fill-opacity="1" fill-rule="nonzero"/></g><path fill="#2563eb" d="M 200.691406 80.90625 L 193.742188 80.90625 L 193.742188 87.855469 L 200.691406 87.855469 Z M 200.691406 80.90625 " fill-opacity="1" fill-rule="nonzero"/><path fill="#2563eb" d="M 212.269531 80.90625 L 205.320312 80.90625 L 205.320312 87.855469 L 212.269531 87.855469 Z M 212.269531 80.90625 " fill-opacity="1" fill-rule="nonzero"/><path fill="#2563eb" d="M 223.851562 80.90625 L 216.902344 80.90625 L 216.902344 87.855469 L 223.851562 87.855469 Z M 223.851562 80.90625 " fill-opacity="1" fill-rule="nonzero"/><path fill="#2563eb" d="M 235.429688 80.90625 L 228.480469 80.90625 L 228.480469 87.855469 L 235.429688 87.855469 Z M 235.429688 80.90625 " fill-opacity="1" fill-rule="nonzero"/><g clip-path="url(#af1a77db58)"><path fill="#2563eb" d="M 247.007812 80.90625 L 240.058594 80.90625 L 240.058594 87.855469 L 247.007812 87.855469 Z M 247.007812 80.90625 " fill-opacity="1" fill-rule="nonzero"/></g><path fill="#a0dcff" d="M 65.160156 89.523438 L 61.476562 89.523438 L 61.476562 93.207031 L 65.160156 93.207031 Z M 65.160156 89.523438 " fill-opacity="1" fill-rule="nonzero"/><path fill="#a0dcff" d="M 71.300781 89.523438 L 67.613281 89.523438 L 67.613281 93.207031 L 71.300781 93.207031 Z M 71.300781 89.523438 " fill-opacity="1" fill-rule="nonzero"/><path fill="#a0dcff" d="M 77.441406 89.523438 L 73.757812 89.523438 L 73.757812 93.207031 L 77.441406 93.207031 Z M 77.441406 89.523438 " fill-opacity="1" fill-rule="nonzero"/><path fill="#a0dcff" d="M 83.582031 89.523438 L 79.898438 89.523438 L 79.898438 93.207031 L 83.582031 93.207031 Z M 83.582031 89.523438 " fill-opacity="1" fill-rule="nonzero"/><path fill="#a0dcff" d="M 89.726562 89.523438 L 86.039062 89.523438 L 86.039062 93.207031 L 89.726562 93.207031 Z M 89.726562 89.523438 " fill-opacity="1" fill-rule="nonzero"/><path fill="#a0dcff" d="M 65.160156 83.382812 L 61.476562 83.382812 L 61.476562 87.070312 L 65.160156 87.070312 Z M 65.160156 83.382812 " fill-opacity="1" fill-rule="nonzero"/><path fill="#a0dcff" d="M 71.300781 83.382812 L 67.613281 83.382812 L 67.613281 87.070312 L 71.300781 87.070312 Z M 71.300781 83.382812 " fill-opacity="1" fill-rule="nonzero"/><path fill="#a0dcff" d="M 77.441406 83.382812 L 73.757812 83.382812 L 73.757812 87.070312 L 77.441406 87.070312 Z M 77.441406 83.382812 " fill-opacity="1" fill-rule="nonzero"/><path fill="#a0dcff" d="M 83.582031 83.382812 L 79.898438 83.382812 L 79.898438 87.070312 L 83.582031 87.070312 Z M 83.582031 83.382812 " fill-opacity="1" fill-rule="nonzero"/><path fill="#a0dcff" d="M 89.726562 83.382812 L 86.039062 83.382812 L 86.039062 87.070312 L 89.726562 87.070312 Z M 89.726562 83.382812 " fill-opacity="1" fill-rule="nonzero"/><path fill="#a0dcff" d="M 65.160156 77.242188 L 61.476562 77.242188 L 61.476562 80.925781 L 65.160156 80.925781 Z M 65.160156 77.242188 " fill-opacity="1" fill-rule="nonzero"/><path fill="#a0dcff" d="M 71.300781 77.242188 L 67.613281 77.242188 L 67.613281 80.925781 L 71.300781 80.925781 Z M 71.300781 77.242188 " fill-opacity="1" fill-rule="nonzero"/><path fill="#a0dcff" d="M 77.441406 77.242188 L 73.757812 77.242188 L 73.757812 80.925781 L 77.441406 80.925781 Z M 77.441406 77.242188 " fill-opacity="1" fill-rule="nonzero"/><path fill="#a0dcff" d="M 83.582031 77.242188 L 79.898438 77.242188 L 79.898438 80.925781 L 83.582031 80.925781 Z M 83.582031 77.242188 " fill-opacity="1" fill-rule="nonzero"/><path fill="#a0dcff" d="M 89.726562 77.242188 L 86.039062 77.242188 L 86.039062 80.925781 L 89.726562 80.925781 Z M 89.726562 77.242188 " fill-opacity="1" fill-rule="nonzero"/><path fill="#a0dcff" d="M 65.160156 71.101562 L 61.476562 71.101562 L 61.476562 74.785156 L 65.160156 74.785156 Z M 65.160156 71.101562 " fill-opacity="1" fill-rule="nonzero"/><path fill="#a0dcff" d="M 71.300781 71.101562 L 67.613281 71.101562 L 67.613281 74.785156 L 71.300781 74.785156 Z M 71.300781 71.101562 " fill-opacity="1" fill-rule="nonzero"/><path fill="#a0dcff" d="M 77.441406 71.101562 L 73.757812 71.101562 L 73.757812 74.785156 L 77.441406 74.785156 Z M 77.441406 71.101562 " fill-opacity="1" fill-rule="nonzero"/><path fill="#a0dcff" d="M 83.582031 71.101562 L 79.898438 71.101562 L 79.898438 74.785156 L 83.582031 74.785156 Z M 83.582031 71.101562 " fill-opacity="1" fill-rule="nonzero"/><path fill="#a0dcff" d="M 89.726562 71.101562 L 86.039062 71.101562 L 86.039062 74.785156 L 89.726562 74.785156 Z M 89.726562 71.101562 " fill-opacity="1" fill-rule="nonzero"/><path fill="#a0dcff" d="M 65.160156 64.960938 L 61.476562 64.960938 L 61.476562 68.648438 L 65.160156 68.648438 Z M 65.160156 64.960938 " fill-opacity="1" fill-rule="nonzero"/><path fill="#a0dcff" d="M 71.300781 64.960938 L 67.613281 64.960938 L 67.613281 68.648438 L 71.300781 68.648438 Z M 71.300781 64.960938 " fill-opacity="1" fill-rule="nonzero"/><path fill="#a0dcff" d="M 77.441406 64.960938 L 73.757812 64.960938 L 73.757812 68.648438 L 77.441406 68.648438 Z M 77.441406 64.960938 " fill-opacity="1" fill-rule="nonzero"/><path fill="#a0dcff" d="M 83.582031 64.960938 L 79.898438 64.960938 L 79.898438 68.648438 L 83.582031 68.648438 Z M 83.582031 64.960938 " fill-opacity="1" fill-rule="nonzero"/><path fill="#a0dcff" d="M 89.726562 64.960938 L 86.039062 64.960938 L 86.039062 68.648438 L 89.726562 68.648438 Z M 89.726562 64.960938 " fill-opacity="1" fill-rule="nonzero"/><g clip-path="url(#b98d6cb6f7)"><path fill="#2563eb" d="M 198.628906 222.988281 L 264.339844 222.988281 L 264.339844 157.285156 L 198.632812 157.285156 L 198.632812 222.988281 Z M 258.84375 217.496094 L 204.128906 217.496094 L 204.128906 162.777344 L 258.84375 162.777344 Z M 258.84375 217.496094 " fill-opacity="1" fill-rule="nonzero"/></g><g clip-path="url(#cf2b2f04d1)"><path fill="#2563eb" d="M 0.976562 124.019531 L 36.566406 124.019531 L 36.566406 88.429688 L 0.976562 88.429688 Z M 31.066406 118.523438 L 6.46875 118.523438 L 6.46875 93.925781 L 31.066406 93.925781 Z M 31.066406 118.523438 " fill-opacity="1" fill-rule="nonzero"/></g><g clip-path="url(#e7b0044c06)"><path fill="#a0dcff" d="M 106.976562 66.832031 L 173.15625 66.832031 L 173.15625 0.65625 L 106.976562 0.65625 Z M 167.660156 61.339844 L 112.472656 61.339844 L 112.472656 6.152344 L 167.660156 6.152344 Z M 167.660156 61.339844 " fill-opacity="1" fill-rule="nonzero"/></g><path fill="#a0dcff" d="M 24.695312 177.433594 L 49.183594 177.433594 L 49.183594 152.945312 L 24.695312 152.945312 Z M 43.691406 171.941406 L 30.191406 171.941406 L 30.191406 158.441406 L 43.691406 158.441406 Z M 43.691406 171.941406 " fill-opacity="1" fill-rule="nonzero"/><path fill="#a0dcff" d="M 65.523438 161.515625 L 70.449219 161.515625 L 70.449219 156.585938 L 65.523438 156.585938 Z M 69.71875 160.78125 L 66.253906 160.78125 L 66.253906 157.320312 L 69.71875 157.320312 Z M 69.71875 160.78125 " fill-opacity="1" fill-rule="nonzero"/><path fill="#a0dcff" d="M 73.074219 161.515625 L 78 161.515625 L 78 156.585938 L 73.074219 156.585938 Z M 77.265625 160.78125 L 73.804688 160.78125 L 73.804688 157.320312 L 77.265625 157.320312 Z M 77.265625 160.78125 " fill-opacity="1" fill-rule="nonzero"/><path fill="#a0dcff" d="M 80.617188 161.515625 L 85.546875 161.515625 L 85.546875 156.585938 L 80.617188 156.585938 Z M 84.816406 160.78125 L 81.355469 160.78125 L 81.355469 157.320312 L 84.816406 157.320312 Z M 84.816406 160.78125 " fill-opacity="1" fill-rule="nonzero"/><path fill="#a0dcff" d="M 88.167969 161.515625 L 93.09375 161.515625 L 93.09375 156.585938 L 88.167969 156.585938 Z M 92.363281 160.78125 L 88.902344 160.78125 L 88.902344 157.320312 L 92.363281 157.320312 Z M 92.363281 160.78125 " fill-opacity="1" fill-rule="nonzero"/><path fill="#a0dcff" d="M 65.523438 153.96875 L 70.449219 153.96875 L 70.449219 149.042969 L 65.523438 149.042969 Z M 69.71875 153.234375 L 66.253906 153.234375 L 66.253906 149.773438 L 69.71875 149.773438 Z M 69.71875 153.234375 " fill-opacity="1" fill-rule="nonzero"/><path fill="#a0dcff" d="M 73.074219 153.96875 L 78 153.96875 L 78 149.042969 L 73.074219 149.042969 Z M 77.265625 153.234375 L 73.804688 153.234375 L 73.804688 149.773438 L 77.265625 149.773438 Z M 77.265625 153.234375 " fill-opacity="1" fill-rule="nonzero"/><path fill="#a0dcff" d="M 80.617188 153.96875 L 85.546875 153.96875 L 85.546875 149.042969 L 80.617188 149.042969 Z M 84.816406 153.234375 L 81.355469 153.234375 L 81.355469 149.773438 L 84.816406 149.773438 Z M 84.816406 153.234375 " fill-opacity="1" fill-rule="nonzero"/><path fill="#a0dcff" d="M 88.167969 153.96875 L 93.09375 153.96875 L 93.09375 149.042969 L 88.167969 149.042969 Z M 92.363281 153.234375 L 88.902344 153.234375 L 88.902344 149.773438 L 92.363281 149.773438 Z M 92.363281 153.234375 " fill-opacity="1" fill-rule="nonzero"/><path fill="#a0dcff" d="M 65.523438 146.417969 L 70.449219 146.417969 L 70.449219 141.492188 L 65.523438 141.492188 Z M 69.71875 145.6875 L 66.253906 145.6875 L 66.253906 142.222656 L 69.71875 142.222656 Z M 69.71875 145.6875 " fill-opacity="1" fill-rule="nonzero"/><path fill="#a0dcff" d="M 73.074219 146.417969 L 78 146.417969 L 78 141.492188 L 73.074219 141.492188 Z M 77.265625 145.6875 L 73.804688 145.6875 L 73.804688 142.222656 L 77.265625 142.222656 Z M 77.265625 145.6875 " fill-opacity="1" fill-rule="nonzero"/><path fill="#a0dcff" d="M 80.617188 146.417969 L 85.546875 146.417969 L 85.546875 141.492188 L 80.617188 141.492188 Z M 84.816406 145.6875 L 81.355469 145.6875 L 81.355469 142.222656 L 84.816406 142.222656 Z M 84.816406 145.6875 " fill-opacity="1" fill-rule="nonzero"/><path fill="#a0dcff" d="M 88.167969 146.417969 L 93.09375 146.417969 L 93.09375 141.492188 L 88.167969 141.492188 Z M 92.363281 145.6875 L 88.902344 145.6875 L 88.902344 142.222656 L 92.363281 142.222656 Z M 92.363281 145.6875 " fill-opacity="1" fill-rule="nonzero"/><path fill="#a0dcff" d="M 65.523438 138.871094 L 70.449219 138.871094 L 70.449219 133.941406 L 65.523438 133.941406 Z M 69.71875 138.136719 L 66.253906 138.136719 L 66.253906 134.675781 L 69.71875 134.675781 Z M 69.71875 138.136719 " fill-opacity="1" fill-rule="nonzero"/><path fill="#a0dcff" d="M 73.074219 138.871094 L 78 138.871094 L 78 133.941406 L 73.074219 133.941406 Z M 77.265625 138.136719 L 73.804688 138.136719 L 73.804688 134.675781 L 77.265625 134.675781 Z M 77.265625 138.136719 " fill-opacity="1" fill-rule="nonzero"/><path fill="#a0dcff" d="M 80.617188 138.871094 L 85.546875 138.871094 L 85.546875 133.941406 L 80.617188 133.941406 Z M 84.816406 138.136719 L 81.355469 138.136719 L 81.355469 134.675781 L 84.816406 134.675781 Z M 84.816406 138.136719 " fill-opacity="1" fill-rule="nonzero"/><path fill="#a0dcff" d="M 88.167969 138.871094 L 93.09375 138.871094 L 93.09375 133.941406 L 88.167969 133.941406 Z M 92.363281 138.136719 L 88.902344 138.136719 L 88.902344 134.675781 L 92.363281 134.675781 Z M 92.363281 138.136719 " fill-opacity="1" fill-rule="nonzero"/><path fill="#2563eb" d="M 132.097656 181.714844 L 140.390625 181.714844 L 140.390625 173.417969 L 132.097656 173.417969 Z M 139.65625 180.980469 L 132.828125 180.980469 L 132.828125 174.152344 L 139.65625 174.152344 Z M 139.65625 180.980469 " fill-opacity="1" fill-rule="nonzero"/><path fill="#2563eb" d="M 145.699219 181.714844 L 153.996094 181.714844 L 153.996094 173.417969 L 145.699219 173.417969 Z M 153.265625 180.980469 L 146.4375 180.980469 L 146.4375 174.152344 L 153.265625 174.152344 Z M 153.265625 180.980469 " fill-opacity="1" fill-rule="nonzero"/><path fill="#2563eb" d="M 159.308594 181.714844 L 167.601562 181.714844 L 167.601562 173.417969 L 159.308594 173.417969 Z M 166.871094 180.980469 L 160.042969 180.980469 L 160.042969 174.152344 L 166.871094 174.152344 Z M 166.871094 180.980469 " fill-opacity="1" fill-rule="nonzero"/><path fill="#2563eb" d="M 132.097656 168.109375 L 140.390625 168.109375 L 140.390625 159.816406 L 132.097656 159.816406 Z M 139.65625 167.375 L 132.828125 167.375 L 132.828125 160.546875 L 139.65625 160.546875 Z M 139.65625 167.375 " fill-opacity="1" fill-rule="nonzero"/><path fill="#2563eb" d="M 145.699219 168.109375 L 153.996094 168.109375 L 153.996094 159.816406 L 145.699219 159.816406 Z M 153.265625 167.375 L 146.4375 167.375 L 146.4375 160.546875 L 153.265625 160.546875 Z M 153.265625 167.375 " fill-opacity="1" fill-rule="nonzero"/><path fill="#2563eb" d="M 159.308594 168.109375 L 167.601562 168.109375 L 167.601562 159.816406 L 159.308594 159.816406 Z M 166.871094 167.375 L 160.042969 167.375 L 160.042969 160.546875 L 166.871094 160.546875 Z M 166.871094 167.375 " fill-opacity="1" fill-rule="nonzero"/><path fill="#2563eb" d="M 132.097656 154.503906 L 140.390625 154.503906 L 140.390625 146.210938 L 132.097656 146.210938 Z M 139.65625 153.769531 L 132.828125 153.769531 L 132.828125 146.941406 L 139.65625 146.941406 Z M 139.65625 153.769531 " fill-opacity="1" fill-rule="nonzero"/><path fill="#2563eb" d="M 145.699219 154.503906 L 153.996094 154.503906 L 153.996094 146.210938 L 145.699219 146.210938 Z M 153.265625 153.769531 L 146.4375 153.769531 L 146.4375 146.941406 L 153.265625 146.941406 Z M 153.265625 153.769531 " fill-opacity="1" fill-rule="nonzero"/><path fill="#2563eb" d="M 159.308594 154.503906 L 167.601562 154.503906 L 167.601562 146.210938 L 159.308594 146.210938 Z M 166.871094 153.769531 L 160.042969 153.769531 L 160.042969 146.941406 L 166.871094 146.941406 Z M 166.871094 153.769531 " fill-opacity="1" fill-rule="nonzero"/><path fill="#2563eb" d="M 132.097656 140.894531 L 140.390625 140.894531 L 140.390625 132.601562 L 132.097656 132.601562 Z M 139.65625 140.164062 L 132.828125 140.164062 L 132.828125 133.335938 L 139.65625 133.335938 Z M 139.65625 140.164062 " fill-opacity="1" fill-rule="nonzero"/><path fill="#2563eb" d="M 145.699219 140.894531 L 153.996094 140.894531 L 153.996094 132.601562 L 145.699219 132.601562 Z M 153.265625 140.164062 L 146.4375 140.164062 L 146.4375 133.335938 L 153.265625 133.335938 Z M 153.265625 140.164062 " fill-opacity="1" fill-rule="nonzero"/><path fill="#2563eb" d="M 159.308594 140.894531 L 167.601562 140.894531 L 167.601562 132.601562 L 159.308594 132.601562 Z M 166.871094 140.164062 L 160.042969 140.164062 L 160.042969 133.335938 L 166.871094 133.335938 Z M 166.871094 140.164062 " fill-opacity="1" fill-rule="nonzero"/></g></g></g></g></g></g><g mask="url(#ab6c27544b)"><g transform="matrix(1, 0, 0, 1, 0, 990)"><g clip-path="url(#a9ee2b9ee4)"><g clip-path="url(#26a7d6f4ce)"><g transform="matrix(1, 0, 0, 1, 0, -0.000000000000113687)"><g clip-path="url(#26f4afe94a)"><g clip-path="url(#7688fb0c50)"><path stroke-linecap="butt" transform="matrix(-1.474215, 0, 0, 1.472645, 592.187319, -0.0175669)" fill="none" stroke-linejoin="miter" d="M 250.999445 44.3014 L 225.999382 87.601474 L 175.999257 87.601474 L 150.999195 44.3014 L 175.999257 0.998674 L 225.999382 0.998674 Z M 250.999445 44.3014 " stroke="#000000" stroke-width="1" stroke-opacity="1" stroke-miterlimit="4"/></g><path stroke-linecap="butt" transform="matrix(-1.474215, 0, 0, 1.472645, 592.187319, -0.0175669)" fill="none" stroke-linejoin="miter" d="M 175.999257 174.299765 L 150.999195 217.602492 L 100.99907 217.602492 L 75.999007 174.299765 L 100.99907 130.999692 L 150.999195 130.999692 Z M 175.999257 174.299765 " stroke="#000000" stroke-width="1" stroke-opacity="1" stroke-miterlimit="4"/><path stroke-linecap="butt" transform="matrix(-1.474215, 0, 0, 1.472645, 592.187319, -0.0175669)" fill="none" stroke-linejoin="miter" d="M 250.999445 131.302081 L 225.999382 174.602155 L 175.999257 174.602155 L 150.999195 131.302081 L 175.999257 87.999355 L 225.999382 87.999355 Z M 250.999445 131.302081 " stroke="#000000" stroke-width="1" stroke-opacity="1" stroke-miterlimit="4"/><g clip-path="url(#e7fec59942)"><path stroke-linecap="butt" transform="matrix(-1.474215, 0, 0, 1.472645, 592.187319, -0.0175669)" fill="none" stroke-linejoin="miter" d="M 175.999257 261.300447 L 150.999195 304.603173 L 100.99907 304.603173 L 75.999007 261.300447 L 100.99907 218.000373 L 150.999195 218.000373 Z M 175.999257 261.300447 " stroke="#000000" stroke-width="1" stroke-opacity="1" stroke-miterlimit="4"/></g><path stroke-linecap="butt" transform="matrix(-1.474215, 0, 0, 1.472645, 592.187319, -0.0175669)" fill="none" stroke-linejoin="miter" d="M 175.999257 87.301737 L 150.999195 130.601811 L 100.99907 130.601811 L 75.999007 87.301737 L 100.99907 43.999011 L 150.999195 43.999011 Z M 175.999257 87.301737 " stroke="#000000" stroke-width="1" stroke-opacity="1" stroke-miterlimit="4"/><g clip-path="url(#426b95677f)"><path stroke-linecap="butt" transform="matrix(-1.474215, 0, 0, 1.472645, 592.187319, -0.0175669)" fill="none" stroke-linejoin="miter" d="M 100.99907 217.300102 L 75.999007 260.602828 L 25.998882 260.602828 L 0.99882 217.300102 L 25.998882 174.000028 L 75.999007 174.000028 Z M 100.99907 217.300102 " stroke="#000000" stroke-width="1" stroke-opacity="1" stroke-miterlimit="4"/></g><g clip-path="url(#9bdb2dd8e4)"><path stroke-linecap="butt" transform="matrix(-1.474215, 0, 0, 1.472645, 592.187319, -0.0175669)" fill="none" stroke-linejoin="miter" d="M 400.99982 44.3014 L 375.999757 87.601474 L 325.999632 87.601474 L 300.99957 44.3014 L 325.999632 0.998674 L 375.999757 0.998674 Z M 400.99982 44.3014 " stroke="#000000" stroke-width="1" stroke-opacity="1" stroke-miterlimit="4"/></g><path stroke-linecap="butt" transform="matrix(-1.474215, 0, 0, 1.472645, 592.187319, -0.0175669)" fill="none" stroke-linejoin="miter" d="M 325.999632 174.299765 L 300.99957 217.602492 L 250.999445 217.602492 L 225.999382 174.299765 L 250.999445 130.999692 L 300.99957 130.999692 Z M 325.999632 174.299765 " stroke="#000000" stroke-width="1" stroke-opacity="1" stroke-miterlimit="4"/><g clip-path="url(#cfbe66ef87)"><path stroke-linecap="butt" transform="matrix(-1.474215, 0, 0, 1.472645, 592.187319, -0.0175669)" fill="none" stroke-linejoin="miter" d="M 400.99982 131.302081 L 375.999757 174.602155 L 325.999632 174.602155 L 300.99957 131.302081 L 325.999632 87.999355 L 375.999757 87.999355 Z M 400.99982 131.302081 " stroke="#000000" stroke-width="1" stroke-opacity="1" stroke-miterlimit="4"/></g><g clip-path="url(#8c9c34621c)"><path stroke-linecap="butt" transform="matrix(-1.474215, 0, 0, 1.472645, 592.187319, -0.0175669)" fill="none" stroke-linejoin="miter" d="M 325.999632 261.300447 L 300.99957 304.603173 L 250.999445 304.603173 L 225.999382 261.300447 L 250.999445 218.000373 L 300.99957 218.000373 Z M 325.999632 261.300447 " stroke="#000000" stroke-width="1" stroke-opacity="1" stroke-miterlimit="4"/></g><path stroke-linecap="butt" transform="matrix(-1.474215, 0, 0, 1.472645, 592.187319, -0.0175669)" fill="none" stroke-linejoin="miter" d="M 325.999632 87.301737 L 300.99957 130.601811 L 250.999445 130.601811 L 225.999382 87.301737 L 250.999445 43.999011 L 300.99957 43.999011 Z M 325.999632 87.301737 " stroke="#000000" stroke-width="1" stroke-opacity="1" stroke-miterlimit="4"/><path stroke-linecap="butt" transform="matrix(-1.474215, 0, 0, 1.472645, 592.187319, -0.0175669)" fill="none" stroke-linejoin="miter" d="M 250.999445 217.300102 L 225.999382 260.602828 L 175.999257 260.602828 L 150.999195 217.300102 L 175.999257 174.000028 L 225.999382 174.000028 Z M 250.999445 217.300102 " stroke="#000000" stroke-width="1" stroke-opacity="1" stroke-miterlimit="4"/></g></g></g></g></g></g></svg>