<svg xmlns="http://www.w3.org/2000/svg" xmlns:xlink="http://www.w3.org/1999/xlink" width="1080" zoomAndPan="magnify" viewBox="0 0 810 1439.999935" height="1920" preserveAspectRatio="xMidYMid meet" version="1.0"><defs><clipPath id="96a60ec531"><path d="M 0 0 L 810 0 L 810 678.460938 L 0 678.460938 Z M 0 0 " clip-rule="nonzero"/></clipPath><clipPath id="0a7251ef86"><path d="M 170.054688 40.75 C 242.167969 16.144531 324.652344 0 405.378906 0 C 486.109375 0 563.789062 13.839844 635.375 38.441406 C 636.902344 39.210938 638.421875 39.210938 639.945312 39.980469 C 908.78125 138.394531 1106.792969 398.269531 1110.597656 678.460938 L -300.597656 678.460938 C -296.789062 396.734375 -101.828125 136.855469 170.054688 40.75 Z M 170.054688 40.75 " clip-rule="nonzero"/></clipPath><clipPath id="51f18a2328"><path d="M 0 0 L 810 0 L 810 678.460938 L 0 678.460938 Z M 0 0 " clip-rule="nonzero"/></clipPath><clipPath id="b988a3de3c"><path d="M 170.054688 40.75 C 242.167969 16.144531 324.652344 0 405.378906 0 C 486.109375 0 563.789062 13.839844 635.375 38.441406 C 636.902344 39.210938 638.421875 39.210938 639.945312 39.980469 C 908.78125 138.394531 1106.792969 398.269531 1110.597656 678.460938 L -300.597656 678.460938 C -296.789062 396.734375 -101.828125 136.855469 170.054688 40.75 Z M 170.054688 40.75 " clip-rule="nonzero"/></clipPath><clipPath id="df9a1ca87b"><rect x="0" width="810" y="0" height="679"/></clipPath><clipPath id="8a4129e6f8"><path d="M 0 551.667969 L 810 551.667969 L 810 888.417969 L 0 888.417969 Z M 0 551.667969 " clip-rule="nonzero"/></clipPath><clipPath id="aa4257a7e8"><path d="M 0 0.667969 L 810 0.667969 L 810 192 L 0 192 Z M 0 0.667969 " clip-rule="nonzero"/></clipPath><clipPath id="288432aed2"><path d="M 0 0.667969 L 681 0.667969 L 681 279 L 0 279 Z M 0 0.667969 " clip-rule="nonzero"/></clipPath><clipPath id="feb1d12ac7"><path d="M 205 0.667969 L 810 0.667969 L 810 244 L 205 244 Z M 205 0.667969 " clip-rule="nonzero"/></clipPath><clipPath id="60fe16bb3b"><path d="M 503 0.667969 L 810 0.667969 L 810 222 L 503 222 Z M 503 0.667969 " clip-rule="nonzero"/></clipPath><clipPath id="d88a8fbd4e"><path d="M 0 160 L 810 160 L 810 308 L 0 308 Z M 0 160 " clip-rule="nonzero"/></clipPath><clipPath id="b6d4f58ef4"><path d="M 0 109 L 810 109 L 810 337.324219 L 0 337.324219 Z M 0 109 " clip-rule="nonzero"/></clipPath><clipPath id="dfdb33eb91"><rect x="0" width="810" y="0" height="338"/></clipPath></defs><rect x="-81" width="972" fill="#ffffff" y="-143.999994" height="1727.999922" fill-opacity="1"/><rect x="-81" width="972" fill="#ffffff" y="-143.999994" height="1727.999922" fill-opacity="1"/><g clip-path="url(#96a60ec531)"><g clip-path="url(#0a7251ef86)"><g transform="matrix(1, 0, 0, 1, 0, -0.000000000000101068)"><g clip-path="url(#df9a1ca87b)"><g clip-path="url(#51f18a2328)"><g clip-path="url(#b988a3de3c)"><path fill="#e3f5ff" d="M -300.597656 0 L 1109.328125 0 L 1109.328125 678.460938 L -300.597656 678.460938 Z M -300.597656 0 " fill-opacity="1" fill-rule="nonzero"/></g></g></g></g></g></g><g clip-path="url(#8a4129e6f8)"><g transform="matrix(1, 0, 0, 1, 0, 551)"><g clip-path="url(#dfdb33eb91)"><g clip-path="url(#aa4257a7e8)"><path fill="#e3f5ff" d="M 395.21875 191.230469 L 824.585938 0.675781 L -34.148438 0.675781 Z M 395.21875 191.230469 " fill-opacity="1" fill-rule="evenodd"/></g><g clip-path="url(#288432aed2)"><path fill="#a0dcff" d="M 55.035156 278.457031 L 680.949219 0.675781 L -43.632812 0.675781 L -43.632812 234.667969 Z M 55.035156 278.457031 " fill-opacity="1" fill-rule="evenodd"/></g><g clip-path="url(#feb1d12ac7)"><path fill="#e3f5ff" d="M 752.847656 243.566406 L 1046.699219 113.15625 L 1046.699219 0.675781 L 205.554688 0.675781 Z M 752.847656 243.566406 " fill-opacity="1" fill-rule="evenodd"/></g><g clip-path="url(#60fe16bb3b)"><path fill="#e3f5ff" d="M 1001.441406 221.757812 L 1046.699219 201.675781 L 1046.699219 0.675781 L 503.285156 0.675781 Z M 1001.441406 221.757812 " fill-opacity="1" fill-rule="evenodd"/></g><g clip-path="url(#d88a8fbd4e)"><path fill="#e3f5ff" d="M -43.632812 263.640625 L 55.035156 307.429688 L 323.398438 188.332031 L 395.21875 220.203125 L 515.070312 167.015625 L 752.847656 272.539062 L 901.714844 206.472656 L 1001.441406 250.734375 L 1046.699219 230.648438 L 1046.699219 223.917969 L 1001.441406 244.003906 L 901.714844 199.742188 L 752.847656 265.808594 L 515.070312 160.285156 L 395.21875 213.472656 L 323.398438 181.601562 L 55.035156 300.699219 L -43.632812 256.910156 Z M -43.632812 263.640625 " fill-opacity="1" fill-rule="nonzero"/></g><g clip-path="url(#b6d4f58ef4)"><path fill="#a0dcff" d="M -43.632812 286.78125 L 55.035156 330.570312 L 323.398438 211.46875 L 395.21875 243.34375 L 650.296875 130.140625 L 752.785156 175.625 L 901.648438 109.558594 L 991.699219 149.519531 C 995.121094 145.199219 1001.105469 143.566406 1006.394531 145.898438 C 1012.652344 148.710938 1015.425781 155.929688 1012.679688 162.210938 C 1009.875 168.457031 1002.632812 171.257812 996.363281 168.496094 C 991.082031 166.125 988.28125 160.609375 989.191406 155.167969 L 901.648438 116.320312 L 752.785156 182.386719 L 650.296875 136.902344 L 395.21875 250.105469 L 323.398438 218.230469 L 55.035156 337.332031 L -43.632812 293.542969 Z M 995.730469 154.691406 C 994.355469 157.804688 995.75 161.472656 998.871094 162.847656 C 1001.96875 164.238281 1005.660156 162.808594 1007.03125 159.707031 C 1008.402344 156.589844 1007.007812 152.925781 1003.886719 151.546875 C 1000.789062 150.160156 997.097656 151.585938 995.730469 154.691406 Z M 995.730469 154.691406 " fill-opacity="1" fill-rule="nonzero"/></g></g></g></g></svg>